<?xml version="1.0" standalone="no"?>
<!DOCTYPE svg PUBLIC "-//W3C//DTD SVG 1.1//EN" 
  "http://www.w3.org/Graphics/SVG/1.1/DTD/svg11.dtd">
<svg width="578px" height="446px" version="1.1"
  xmlns="http://www.w3.org/2000/svg" xmlns:xlink="http://www.w3.org/1999/xlink">
 <path fill="none" stroke="black" d="
   M 541 123 L 394 147 m 0 0 L 346 88 347 203 391 269 z" stroke-width="1" />
 <path fill="none" stroke="black" d="
   M 482 68 L 541 123 530 242 391 269 347 203 346 88 z
   M 346 88 L 280 168 M 347 203 L 283 247
   M 394 147 L 358 175 M 391 269 L 357 280
   M 541 123 L 398 204 M 530 242 L 397 280" stroke-width="2.5" />
 <path fill="white" stroke="black" d="
   M 510 281 L 62 147 M 48 54 L 550 170 527 396 77 251 z" stroke-width="2.5" />
 <path fill="none" stroke="black" d="
   M 280 168 L 118 359 283 247
   M 358 175 L 118 359 357 280
   M 398 204 L 118 359 397 280" stroke-width="2" />
 <path fill="none" stroke="black" d="
   M 358 175 L 398 204 510 281 397 280 357 280 358 175 280 168 62
   147 283 247 357 280 M 280 168 L 283 247 M 398 204 L 397 280" />
</svg>