<?xml version="1.0" encoding="UTF-8" standalone="no"?>
<!-- Created with Inkscape (http://www.inkscape.org/) -->

<svg
   xmlns:dc="http://purl.org/dc/elements/1.1/"
   xmlns:cc="http://creativecommons.org/ns#"
   xmlns:rdf="http://www.w3.org/1999/02/22-rdf-syntax-ns#"
   xmlns:svg="http://www.w3.org/2000/svg"
   xmlns="http://www.w3.org/2000/svg"
   version="1.1"
   width="600"
   height="575"
   id="svg2">
  <defs
     id="defs4">
    <marker
       refX="0"
       refY="0"
       orient="auto"
       id="DotM"
       style="overflow:visible">
      <path
         d="m -2.5,-1 c 0,2.76 -2.24,5 -5,5 -2.76,0 -5,-2.24 -5,-5 0,-2.76 2.24,-5 5,-5 2.76,0 5,2.24 5,5 z"
         transform="matrix(0.4,0,0,0.4,2.96,0.4)"
         id="path5489"
         style="fill-rule:evenodd;stroke:#000000;stroke-width:1pt" />
    </marker>
  </defs>
  <metadata
     id="metadata7">
    <rdf:RDF>
      <cc:Work
         rdf:about="">
        <dc:format>image/svg+xml</dc:format>
        <dc:type
           rdf:resource="http://purl.org/dc/dcmitype/StillImage" />
        <dc:title></dc:title>
      </cc:Work>
    </rdf:RDF>
  </metadata>
  <g
     transform="translate(0,-477.36218)"
     id="layer1">
    <text
       x="-321.54153"
       y="342.35931"
       id="text7703"
       xml:space="preserve"
       style="font-size:72px;font-style:normal;font-variant:normal;font-weight:normal;font-stretch:normal;text-indent:0;text-align:center;text-decoration:none;line-height:100%;letter-spacing:0px;word-spacing:0px;text-transform:none;direction:ltr;block-progression:tb;writing-mode:tb-rl;text-anchor:middle;baseline-shift:baseline;color:#000000;fill:#e6e6e6;fill-opacity:1;fill-rule:nonzero;stroke:#000000;stroke-width:2;stroke-linecap:round;stroke-linejoin:miter;stroke-miterlimit:4;stroke-opacity:1;stroke-dasharray:none;stroke-dashoffset:0;marker:none;visibility:visible;display:inline;overflow:visible;enable-background:accumulate;font-family:Arial;-inkscape-font-specification:Arial"><tspan
         x="-321.54153"
         y="342.35931"
         id="tspan7705" /></text>
    <text
       x="70.351608"
       y="738.69482"
       id="text4205-8-4-0-9-9"
       xml:space="preserve"
       style="font-size:18.00000572px;font-style:normal;font-variant:normal;font-weight:normal;font-stretch:normal;text-indent:0;text-align:start;text-decoration:none;line-height:100%;letter-spacing:0px;word-spacing:0px;text-transform:none;direction:ltr;block-progression:tb;writing-mode:tb-rl;text-anchor:start;baseline-shift:baseline;color:#000000;fill:#000000;fill-opacity:1;fill-rule:nonzero;stroke:none;stroke-width:1;marker:none;visibility:visible;display:inline;overflow:visible;enable-background:accumulate;font-family:Arial;-inkscape-font-specification:Arial"><tspan
         x="70.351608"
         y="738.69482"
         id="tspan4355"
         style="font-size:24.00000763px;font-weight:normal;text-align:center;text-anchor:middle;-inkscape-font-specification:Arial" /></text>
    <text
       x="471.72971"
       y="623.06732"
       id="text4205-8-4-0-9-9-8-1"
       xml:space="preserve"
       style="font-size:18.00000572px;font-style:normal;font-variant:normal;font-weight:normal;font-stretch:normal;text-indent:0;text-align:start;text-decoration:none;line-height:100%;letter-spacing:0px;word-spacing:0px;text-transform:none;direction:ltr;block-progression:tb;writing-mode:tb-rl;text-anchor:start;baseline-shift:baseline;color:#000000;fill:#000000;fill-opacity:1;fill-rule:nonzero;stroke:none;stroke-width:1;marker:none;visibility:visible;display:inline;overflow:visible;enable-background:accumulate;font-family:Arial;-inkscape-font-specification:Arial"><tspan
         x="471.72971"
         y="623.06732"
         id="tspan7709-2-8-4-9"
         style="font-size:22.00000572px;font-weight:normal;text-align:center;text-anchor:middle;-inkscape-font-specification:Arial" /></text>
    <text
       x="1926.302"
       y="738.69482"
       id="text4205-8-4-0-9-9-0-1"
       xml:space="preserve"
       style="font-size:18.00000572px;font-style:normal;font-variant:normal;font-weight:normal;font-stretch:normal;text-indent:0;text-align:start;text-decoration:none;line-height:100%;letter-spacing:0px;word-spacing:0px;text-transform:none;direction:ltr;block-progression:tb;writing-mode:tb-rl;text-anchor:start;baseline-shift:baseline;color:#000000;fill:#000000;fill-opacity:1;fill-rule:nonzero;stroke:none;stroke-width:1;marker:none;visibility:visible;display:inline;overflow:visible;enable-background:accumulate;font-family:Arial;-inkscape-font-specification:Arial"><tspan
         x="1926.302"
         y="738.69482"
         id="tspan4355-0-8"
         style="font-size:24.00000763px;font-weight:normal;text-align:center;text-anchor:middle;-inkscape-font-specification:Arial" /></text>
    <text
       x="1532.0636"
       y="623.06732"
       id="text4205-8-4-0-9-9-8-1-0-5"
       xml:space="preserve"
       style="font-size:18.00000572px;font-style:normal;font-variant:normal;font-weight:normal;font-stretch:normal;text-indent:0;text-align:start;text-decoration:none;line-height:100%;letter-spacing:0px;word-spacing:0px;text-transform:none;direction:ltr;block-progression:tb;writing-mode:tb-rl;text-anchor:start;baseline-shift:baseline;color:#000000;fill:#000000;fill-opacity:1;fill-rule:nonzero;stroke:none;stroke-width:1;marker:none;visibility:visible;display:inline;overflow:visible;enable-background:accumulate;font-family:Arial;-inkscape-font-specification:Arial"><tspan
         x="1532.0636"
         y="623.06732"
         id="tspan7709-2-8-4-9-6-7"
         style="font-size:22.00000572px;font-weight:normal;text-align:center;text-anchor:middle;-inkscape-font-specification:Arial" /></text>
    <g
       transform="translate(-1200,0)"
       id="g3142">
      <path
         d="m 56.880737,451.22872 c -21.7018,-64.81001 9.041194,-136.47149 68.666403,-160.06041 59.6252,-23.58891 125.55376,9.82739 147.25556,74.6374 9.23827,27.58903 9.23826,57.83398 0,85.42301 L 164.84172,408.51721 z"
         transform="matrix(-2.6021425,0,0,2.3939821,1928.901,-28.871305)"
         id="path3424-6-0-4-5"
         style="color:#000000;fill:#89ffff;fill-opacity:1;fill-rule:nonzero;stroke:#000000;stroke-width:0.80131632;stroke-miterlimit:4;marker:none;visibility:visible;display:inline;overflow:visible;enable-background:accumulate" />
      <path
         d="m 1499.6495,530.29624 0,116.06594"
         id="path13806-4"
         style="fill:none;stroke:#000000;stroke-width:1.99999917;stroke-linecap:butt;stroke-linejoin:miter;stroke-miterlimit:4;stroke-opacity:1;stroke-dasharray:5.99999816, 5.99999816;stroke-dashoffset:1.19999963;marker-start:url(#DotM)" />
      <g
         id="text4205-8-4-1-5-8"
         style="font-size:18.00000572px;font-style:normal;font-variant:normal;font-weight:normal;font-stretch:normal;text-indent:0;text-align:start;text-decoration:none;line-height:100%;letter-spacing:0px;word-spacing:0px;text-transform:none;direction:ltr;block-progression:tb;writing-mode:tb-rl;text-anchor:start;baseline-shift:baseline;color:#000000;fill:#000000;fill-opacity:1;fill-rule:nonzero;stroke:none;stroke-width:1;marker:none;visibility:visible;display:inline;overflow:visible;enable-background:accumulate;font-family:Arial;-inkscape-font-specification:Arial">
        <path
           d="m 1461.9681,494.83481 0,-10.80469 -1.8633,0 0,-1.64063 1.8633,0 0,-1.32422 c 0,-0.83592 0.074,-1.45701 0.2227,-1.86328 0.2031,-0.54686 0.5605,-0.99022 1.0723,-1.33008 0.5117,-0.33982 1.2285,-0.50975 2.1503,-0.50976 0.5938,1e-5 1.25,0.0703 1.9688,0.21093 l -0.3164,1.83985 c -0.4375,-0.0781 -0.8516,-0.11717 -1.2422,-0.11719 -0.6406,2e-5 -1.0938,0.13674 -1.3594,0.41016 -0.2656,0.27345 -0.3984,0.78517 -0.3984,1.53515 l 0,1.14844 2.4258,0 0,1.64063 -2.4258,0 0,10.80469 z"
           id="path3175"
           style="font-size:24.00000763px;text-align:center;text-anchor:middle;marker:none" />
        <path
           d="m 1468.1322,480.0809 0,-2.42578 2.1094,0 0,2.42578 z m 0,14.75391 0,-12.44532 2.1094,0 0,12.44532 z"
           id="path3177"
           style="font-size:24.00000763px;text-align:center;text-anchor:middle;marker:none" />
        <path
           d="m 1472.058,494.83481 4.5469,-6.46875 -4.2071,-5.97657 2.6367,0 1.9102,2.91797 c 0.3594,0.5547 0.6484,1.01954 0.8672,1.39453 0.3437,-0.51561 0.6601,-0.97264 0.9492,-1.37109 l 2.0977,-2.94141 2.5195,0 -4.3008,5.85938 4.6289,6.58594 -2.5898,0 -2.5547,-3.86719 -0.6797,-1.04297 -3.2695,4.91016 z"
           id="path3179"
           style="font-size:24.00000763px;text-align:center;text-anchor:middle;marker:none" />
        <path
           d="m 1493.5853,493.29965 c -0.7812,0.66407 -1.5332,1.13281 -2.2558,1.40625 -0.7227,0.27344 -1.4981,0.41016 -2.3262,0.41016 -1.3672,0 -2.418,-0.33399 -3.1524,-1.00196 -0.7343,-0.66796 -1.1015,-1.52148 -1.1015,-2.56054 0,-0.60937 0.1387,-1.16601 0.416,-1.66993 0.2773,-0.5039 0.6406,-0.90819 1.0898,-1.21289 0.4493,-0.30468 0.9551,-0.53515 1.5176,-0.6914 0.4141,-0.10937 1.0391,-0.21484 1.875,-0.31641 1.7031,-0.20312 2.957,-0.4453 3.7617,-0.72656 0.01,-0.28906 0.012,-0.47265 0.012,-0.55078 0,-0.85937 -0.1993,-1.46484 -0.5977,-1.81641 -0.5391,-0.47655 -1.3398,-0.71483 -2.4023,-0.71484 -0.9922,1e-5 -1.7247,0.17384 -2.1973,0.52148 -0.4727,0.34767 -0.8223,0.9629 -1.0488,1.8457 l -2.0625,-0.28125 c 0.1875,-0.8828 0.4961,-1.59569 0.9257,-2.13867 0.4297,-0.54296 1.0508,-0.96092 1.8633,-1.2539 0.8125,-0.29296 1.7539,-0.43945 2.8242,-0.43946 1.0625,10e-6 1.9258,0.12501 2.5899,0.375 0.664,0.25001 1.1523,0.56447 1.4648,0.94336 0.3125,0.37892 0.5313,0.85743 0.6563,1.43555 0.07,0.35938 0.1054,1.00782 0.1055,1.94531 l 0,2.8125 c -10e-5,1.96094 0.045,3.20118 0.1347,3.72071 0.09,0.51953 0.2676,1.01758 0.5332,1.49414 l -2.2031,0 c -0.2188,-0.4375 -0.3594,-0.94922 -0.4219,-1.53516 z m -0.1758,-4.71094 c -0.7656,0.31251 -1.914,0.57813 -3.4453,0.79688 -0.8672,0.125 -1.4804,0.26563 -1.8398,0.42187 -0.3594,0.15626 -0.6367,0.38477 -0.832,0.68555 -0.1954,0.30079 -0.293,0.63477 -0.293,1.00195 0,0.56251 0.2129,1.03126 0.6387,1.40625 0.4257,0.37501 1.0488,0.56251 1.8691,0.5625 0.8125,1e-5 1.5351,-0.17773 2.168,-0.5332 0.6328,-0.35547 1.0976,-0.84179 1.3945,-1.45898 0.2266,-0.47656 0.3398,-1.17969 0.3398,-2.10938 z"
           id="path3181"
           style="font-size:24.00000763px;text-align:center;text-anchor:middle;marker:none" />
        <path
           d="m 1503.4291,492.94809 0.3047,1.86328 c -0.5938,0.125 -1.125,0.1875 -1.5938,0.1875 -0.7656,0 -1.3594,-0.12109 -1.7812,-0.36328 -0.4219,-0.24219 -0.7188,-0.56055 -0.8907,-0.95508 -0.1718,-0.39453 -0.2578,-1.22461 -0.2578,-2.49023 l 0,-7.16016 -1.5468,0 0,-1.64063 1.5468,0 0,-3.08203 2.0977,-1.26563 0,4.34766 2.1211,0 0,1.64063 -2.1211,0 0,7.27734 c 0,0.60157 0.037,0.98829 0.1113,1.16016 0.074,0.17188 0.1953,0.3086 0.3633,0.41016 0.168,0.10156 0.4082,0.15234 0.7207,0.15234 0.2344,0 0.543,-0.0273 0.9258,-0.082 z"
           id="path3183"
           style="font-size:24.00000763px;text-align:center;text-anchor:middle;marker:none" />
        <path
           d="m 1505.4916,480.0809 0,-2.42578 2.1094,0 0,2.42578 z m 0,14.75391 0,-12.44532 2.1094,0 0,12.44532 z"
           id="path3185"
           style="font-size:24.00000763px;text-align:center;text-anchor:middle;marker:none" />
        <path
           d="m 1510.0385,488.61215 c 0,-2.30468 0.6406,-4.01171 1.9218,-5.1211 1.0703,-0.92186 2.375,-1.3828 3.9141,-1.38281 1.7109,10e-6 3.1094,0.56056 4.1953,1.68164 1.0859,1.12111 1.6289,2.66993 1.6289,4.64649 0,1.60157 -0.2402,2.86133 -0.7207,3.7793 -0.4805,0.91797 -1.1797,1.63086 -2.0976,2.13867 -0.918,0.50781 -1.92,0.76172 -3.0059,0.76172 -1.7422,0 -3.1504,-0.5586 -4.2246,-1.67578 -1.0742,-1.11719 -1.6113,-2.72656 -1.6113,-4.82813 z m 2.1679,0 c 0,1.59376 0.3477,2.78711 1.043,3.58008 0.6953,0.79297 1.5703,1.18945 2.625,1.18945 1.0469,0 1.918,-0.39843 2.6133,-1.19531 0.6953,-0.79687 1.0429,-2.01171 1.0429,-3.64453 0,-1.53906 -0.3496,-2.70507 -1.0488,-3.49805 -0.6992,-0.79296 -1.5683,-1.18944 -2.6074,-1.18945 -1.0547,1e-5 -1.9297,0.39454 -2.625,1.18359 -0.6953,0.78907 -1.043,1.98048 -1.043,3.57422 z"
           id="path3187"
           style="font-size:24.00000763px;text-align:center;text-anchor:middle;marker:none" />
        <path
           d="m 1524.183,494.83481 0,-12.44532 1.8984,0 0,1.76953 c 0.9141,-1.36717 2.2344,-2.05077 3.961,-2.05078 0.75,10e-6 1.4394,0.13478 2.0683,0.4043 0.6289,0.26954 1.0996,0.62306 1.4121,1.06055 0.3125,0.43751 0.5313,0.95704 0.6563,1.55859 0.078,0.39063 0.1172,1.07423 0.1172,2.05078 l 0,7.65235 -2.1094,0 0,-7.57032 c 0,-0.85936 -0.082,-1.50194 -0.2461,-1.92773 -0.1641,-0.42577 -0.4551,-0.76562 -0.873,-1.01953 -0.418,-0.2539 -0.9083,-0.38085 -1.4707,-0.38086 -0.8985,10e-6 -1.6739,0.28516 -2.3262,0.85547 -0.6524,0.57032 -0.9785,1.65235 -0.9785,3.24609 l 0,6.79688 z"
           id="path3189"
           style="font-size:24.00000763px;text-align:center;text-anchor:middle;marker:none" />
        <path
           d="m 1473.4642,523.60435 0,-17.21485 1.9219,0 0,1.61719 c 0.4531,-0.6328 0.9648,-1.10741 1.5352,-1.42383 0.5703,-0.31639 1.2617,-0.4746 2.0742,-0.47461 1.0625,10e-6 2,0.27345 2.8125,0.82031 0.8125,0.54689 1.4257,1.31837 1.8398,2.31446 0.4141,0.9961 0.6211,2.08789 0.6211,3.27539 0,1.27344 -0.2285,2.41992 -0.6855,3.43945 -0.4571,1.01954 -1.1211,1.80078 -1.9922,2.34375 -0.8711,0.54297 -1.7871,0.81446 -2.7481,0.81446 -0.7031,0 -1.334,-0.14844 -1.8925,-0.44532 -0.5586,-0.29687 -1.0176,-0.67187 -1.377,-1.125 l 0,6.0586 z m 1.9102,-10.92188 c 0,1.60157 0.3242,2.78516 0.9726,3.55078 0.6485,0.76563 1.4336,1.14844 2.3555,1.14844 0.9375,0 1.7402,-0.39648 2.4082,-1.18945 0.668,-0.79297 1.002,-2.02148 1.002,-3.68555 0,-1.58593 -0.3262,-2.77343 -0.9786,-3.5625 -0.6523,-0.78905 -1.4316,-1.18359 -2.3378,-1.1836 -0.8985,1e-5 -1.6934,0.41994 -2.3848,1.25977 -0.6914,0.83985 -1.0371,2.06056 -1.0371,3.66211 z"
           id="path3191"
           style="font-size:24.00000763px;text-align:center;text-anchor:middle;marker:none" />
        <path
           d="m 1486.0384,512.61216 c 0,-2.30468 0.6407,-4.01171 1.9219,-5.1211 1.0703,-0.92186 2.375,-1.3828 3.9141,-1.38281 1.7109,10e-6 3.1094,0.56056 4.1953,1.68164 1.0859,1.1211 1.6289,2.66993 1.6289,4.64649 0,1.60156 -0.2402,2.86133 -0.7207,3.77929 -0.4805,0.91798 -1.1797,1.63087 -2.0977,2.13868 -0.9179,0.50781 -1.9199,0.76172 -3.0058,0.76172 -1.7422,0 -3.1504,-0.5586 -4.2246,-1.67579 -1.0742,-1.11718 -1.6114,-2.72655 -1.6114,-4.82812 z m 2.168,0 c 0,1.59375 0.3477,2.78711 1.043,3.58008 0.6953,0.79297 1.5703,1.18945 2.625,1.18945 1.0469,0 1.9179,-0.39844 2.6133,-1.19531 0.6953,-0.79687 1.0429,-2.01172 1.0429,-3.64453 0,-1.53906 -0.3496,-2.70507 -1.0488,-3.49805 -0.6992,-0.79296 -1.5684,-1.18945 -2.6074,-1.18946 -1.0547,1e-5 -1.9297,0.39455 -2.625,1.1836 -0.6953,0.78907 -1.043,1.98048 -1.043,3.57422 z"
           id="path3193"
           style="font-size:24.00000763px;text-align:center;text-anchor:middle;marker:none" />
        <path
           d="m 1500.1947,504.08091 0,-2.42579 2.1094,0 0,2.42579 z m 0,14.75391 0,-12.44532 2.1094,0 0,12.44532 z"
           id="path3195"
           style="font-size:24.00000763px;text-align:center;text-anchor:middle;marker:none" />
        <path
           d="m 1505.5267,518.83482 0,-12.44532 1.8985,0 0,1.76953 c 0.914,-1.36717 2.2343,-2.05077 3.9609,-2.05078 0.75,10e-6 1.4395,0.13478 2.0684,0.4043 0.6289,0.26954 1.0996,0.62306 1.4121,1.06054 0.3125,0.43751 0.5312,0.95705 0.6562,1.5586 0.078,0.39063 0.1172,1.07423 0.1172,2.05078 l 0,7.65235 -2.1094,0 0,-7.57032 c 0,-0.85937 -0.082,-1.50194 -0.2461,-1.92773 -0.164,-0.42578 -0.455,-0.76562 -0.873,-1.01954 -0.418,-0.25389 -0.9082,-0.38084 -1.4707,-0.38085 -0.8984,1e-5 -1.6738,0.28516 -2.3262,0.85546 -0.6523,0.57033 -0.9785,1.65236 -0.9785,3.2461 l 0,6.79688 z"
           id="path3197"
           style="font-size:24.00000763px;text-align:center;text-anchor:middle;marker:none" />
        <path
           d="m 1523.4916,516.9481 0.3047,1.86328 c -0.5938,0.125 -1.125,0.1875 -1.5938,0.1875 -0.7656,0 -1.3594,-0.1211 -1.7812,-0.36328 -0.4219,-0.24219 -0.7188,-0.56055 -0.8907,-0.95508 -0.1718,-0.39453 -0.2578,-1.22461 -0.2578,-2.49024 l 0,-7.16015 -1.5468,0 0,-1.64063 1.5468,0 0,-3.08203 2.0977,-1.26563 0,4.34766 2.1211,0 0,1.64063 -2.1211,0 0,7.27734 c 0,0.60157 0.037,0.98829 0.1113,1.16016 0.074,0.17187 0.1953,0.30859 0.3633,0.41015 0.168,0.10157 0.4082,0.15235 0.7207,0.15235 0.2344,0 0.543,-0.0273 0.9258,-0.082 z"
           id="path3199"
           style="font-size:24.00000763px;text-align:center;text-anchor:middle;marker:none" />
      </g>
      <g
         id="text4205-8-4-1-5-1-5"
         style="font-size:18.00000572px;font-style:normal;font-variant:normal;font-weight:normal;font-stretch:normal;text-indent:0;text-align:start;text-decoration:none;line-height:100%;letter-spacing:0px;word-spacing:0px;text-transform:none;direction:ltr;block-progression:tb;writing-mode:tb-rl;text-anchor:start;baseline-shift:baseline;color:#000000;fill:#000000;fill-opacity:1;fill-rule:nonzero;stroke:none;stroke-width:1;marker:none;visibility:visible;display:inline;overflow:visible;enable-background:accumulate;font-family:Arial;-inkscape-font-specification:Arial">
        <path
           d="m 1385.3487,595.08093 -4.7343,-12.44531 2.2265,0 2.6719,7.45312 c 0.2891,0.8047 0.5547,1.64063 0.7969,2.50782 0.1875,-0.65625 0.4492,-1.44531 0.7851,-2.36719 l 2.7657,-7.59375 2.1679,0 -4.7109,12.44531 z"
           id="path3202"
           style="font-size:24.00000763px;text-align:center;text-anchor:middle;marker:none" />
        <path
           d="m 1393.9034,580.32702 0,-2.42578 2.1094,0 0,2.42578 z m 0,14.75391 0,-12.44531 2.1094,0 0,12.44531 z"
           id="path3204"
           style="font-size:24.00000763px;text-align:center;text-anchor:middle;marker:none" />
        <path
           d="m 1398.3917,591.36609 2.086,-0.32813 c 0.1171,0.83594 0.4433,1.47657 0.9785,1.92188 0.5351,0.44531 1.2832,0.66797 2.2441,0.66797 0.9688,0 1.6875,-0.19727 2.1563,-0.5918 0.4687,-0.39453 0.7031,-0.85742 0.7031,-1.38867 0,-0.47656 -0.2071,-0.85156 -0.6211,-1.125 -0.2891,-0.1875 -1.0078,-0.42578 -2.1563,-0.71485 -1.5468,-0.39062 -2.6191,-0.72851 -3.2168,-1.01367 -0.5976,-0.28515 -1.0507,-0.67968 -1.3593,-1.18359 -0.3086,-0.5039 -0.4629,-1.06054 -0.4629,-1.66993 0,-0.55467 0.1269,-1.06834 0.3808,-1.54101 0.2539,-0.47265 0.5996,-0.86522 1.0371,-1.17774 0.3282,-0.24217 0.7754,-0.44725 1.3418,-0.61523 0.5664,-0.16796 1.1739,-0.25194 1.8223,-0.25195 0.9766,10e-6 1.834,0.14063 2.5723,0.42187 0.7382,0.28126 1.2832,0.66212 1.6347,1.14258 0.3516,0.48048 0.5938,1.12306 0.7266,1.92773 l -2.0625,0.28125 c -0.094,-0.64061 -0.3652,-1.14061 -0.8145,-1.5 -0.4492,-0.35936 -1.0839,-0.53905 -1.9042,-0.53906 -0.9688,10e-6 -1.6602,0.16017 -2.0743,0.48047 -0.414,0.32032 -0.6211,0.69532 -0.6211,1.125 0,0.27345 0.086,0.51954 0.2579,0.73828 0.1718,0.22657 0.4414,0.41407 0.8085,0.5625 0.211,0.0781 0.8321,0.25782 1.8633,0.53907 1.4922,0.39844 2.5332,0.72461 3.1231,0.97851 0.5898,0.25391 1.0527,0.62305 1.3886,1.10742 0.336,0.48438 0.5039,1.08595 0.504,1.80469 -10e-5,0.70313 -0.2051,1.36524 -0.6153,1.98633 -0.4101,0.6211 -1.0019,1.10156 -1.7754,1.44141 -0.7734,0.33984 -1.6484,0.50976 -2.625,0.50976 -1.6172,0 -2.8496,-0.33593 -3.6972,-1.00781 -0.8477,-0.67187 -1.3887,-1.66797 -1.6231,-2.98828 z"
           id="path3206"
           style="font-size:24.00000763px;text-align:center;text-anchor:middle;marker:none" />
        <path
           d="m 1419.3917,595.08093 0,-1.82812 c -0.9687,1.40625 -2.2851,2.10937 -3.9492,2.10937 -0.7344,0 -1.4199,-0.14062 -2.0566,-0.42187 -0.6368,-0.28125 -1.1094,-0.63477 -1.418,-1.06055 -0.3086,-0.42578 -0.5254,-0.94726 -0.6504,-1.56445 -0.086,-0.41406 -0.1289,-1.07031 -0.1289,-1.96875 l 0,-7.71094 2.1094,0 0,6.90234 c 0,1.10157 0.043,1.84376 0.1289,2.22657 0.1328,0.55469 0.414,0.99023 0.8437,1.30664 0.4297,0.3164 0.961,0.47461 1.5938,0.47461 0.6328,0 1.2265,-0.16211 1.7812,-0.48633 0.5547,-0.32422 0.9473,-0.76562 1.1778,-1.32422 0.2304,-0.55859 0.3457,-1.36914 0.3457,-2.43164 l 0,-6.66797 2.1093,0 0,12.44531 z"
           id="path3208"
           style="font-size:24.00000763px;text-align:center;text-anchor:middle;marker:none" />
        <path
           d="m 1432.7159,593.54578 c -0.7812,0.66406 -1.5332,1.13281 -2.2558,1.40625 -0.7227,0.27343 -1.4981,0.41015 -2.3262,0.41015 -1.3672,0 -2.418,-0.33398 -3.1523,-1.00195 -0.7344,-0.66797 -1.1016,-1.52148 -1.1016,-2.56055 0,-0.60937 0.1387,-1.16601 0.416,-1.66992 0.2774,-0.5039 0.6406,-0.9082 1.0899,-1.21289 0.4492,-0.30468 0.955,-0.53515 1.5175,-0.69141 0.4141,-0.10937 1.0391,-0.21484 1.875,-0.3164 1.7032,-0.20312 2.9571,-0.44531 3.7618,-0.72657 0.01,-0.28905 0.012,-0.47265 0.012,-0.55078 0,-0.85936 -0.1992,-1.46483 -0.5977,-1.81641 -0.539,-0.47655 -1.3398,-0.71483 -2.4023,-0.71484 -0.9922,10e-6 -1.7246,0.17384 -2.1973,0.52148 -0.4726,0.34767 -0.8223,0.96291 -1.0488,1.84571 l -2.0625,-0.28125 c 0.1875,-0.8828 0.4961,-1.59569 0.9258,-2.13867 0.4297,-0.54296 1.0507,-0.96093 1.8632,-1.25391 0.8125,-0.29296 1.7539,-0.43944 2.8243,-0.43945 1.0625,10e-6 1.9257,0.12501 2.5898,0.375 0.6641,0.25001 1.1523,0.56446 1.4649,0.94336 0.3124,0.37891 0.5312,0.85743 0.6562,1.43554 0.07,0.35939 0.1055,1.00782 0.1055,1.94532 l 0,2.8125 c 0,1.96094 0.045,3.20117 0.1347,3.7207 0.09,0.51953 0.2676,1.01758 0.5332,1.49414 l -2.2031,0 c -0.2187,-0.4375 -0.3594,-0.94922 -0.4219,-1.53515 z m -0.1757,-4.71094 c -0.7657,0.3125 -1.9141,0.57813 -3.4454,0.79687 -0.8671,0.12501 -1.4804,0.26563 -1.8398,0.42188 -0.3594,0.15625 -0.6367,0.38477 -0.832,0.68554 -0.1953,0.30079 -0.293,0.63477 -0.293,1.00196 0,0.5625 0.2129,1.03125 0.6387,1.40625 0.4258,0.375 1.0488,0.5625 1.8691,0.5625 0.8125,0 1.5352,-0.17773 2.168,-0.5332 0.6328,-0.35547 1.0976,-0.8418 1.3945,-1.45899 0.2266,-0.47656 0.3399,-1.17968 0.3399,-2.10938 z"
           id="path3210"
           style="font-size:24.00000763px;text-align:center;text-anchor:middle;marker:none" />
        <path
           d="m 1437.9073,595.08093 0,-17.17969 2.1094,0 0,17.17969 z"
           id="path3212"
           style="font-size:24.00000763px;text-align:center;text-anchor:middle;marker:none" />
        <path
           d="m 1458.0753,593.54578 c -0.7812,0.66406 -1.5332,1.13281 -2.2558,1.40625 -0.7227,0.27343 -1.4981,0.41015 -2.3262,0.41015 -1.3672,0 -2.418,-0.33398 -3.1524,-1.00195 -0.7343,-0.66797 -1.1015,-1.52148 -1.1015,-2.56055 0,-0.60937 0.1387,-1.16601 0.416,-1.66992 0.2773,-0.5039 0.6406,-0.9082 1.0898,-1.21289 0.4493,-0.30468 0.9551,-0.53515 1.5176,-0.69141 0.4141,-0.10937 1.0391,-0.21484 1.875,-0.3164 1.7031,-0.20312 2.957,-0.44531 3.7617,-0.72657 0.01,-0.28905 0.012,-0.47265 0.012,-0.55078 0,-0.85936 -0.1993,-1.46483 -0.5977,-1.81641 -0.5391,-0.47655 -1.3398,-0.71483 -2.4023,-0.71484 -0.9922,10e-6 -1.7247,0.17384 -2.1973,0.52148 -0.4727,0.34767 -0.8223,0.96291 -1.0488,1.84571 l -2.0625,-0.28125 c 0.1875,-0.8828 0.4961,-1.59569 0.9257,-2.13867 0.4297,-0.54296 1.0508,-0.96093 1.8633,-1.25391 0.8125,-0.29296 1.7539,-0.43944 2.8242,-0.43945 1.0625,10e-6 1.9258,0.12501 2.5899,0.375 0.664,0.25001 1.1523,0.56446 1.4648,0.94336 0.3125,0.37891 0.5313,0.85743 0.6563,1.43554 0.07,0.35939 0.1054,1.00782 0.1055,1.94532 l 0,2.8125 c -10e-5,1.96094 0.045,3.20117 0.1347,3.7207 0.09,0.51953 0.2676,1.01758 0.5332,1.49414 l -2.2031,0 c -0.2188,-0.4375 -0.3594,-0.94922 -0.4219,-1.53515 z m -0.1758,-4.71094 c -0.7656,0.3125 -1.914,0.57813 -3.4453,0.79687 -0.8672,0.12501 -1.4804,0.26563 -1.8398,0.42188 -0.3594,0.15625 -0.6367,0.38477 -0.832,0.68554 -0.1954,0.30079 -0.293,0.63477 -0.293,1.00196 0,0.5625 0.2129,1.03125 0.6387,1.40625 0.4257,0.375 1.0488,0.5625 1.8691,0.5625 0.8125,0 1.5351,-0.17773 2.168,-0.5332 0.6328,-0.35547 1.0976,-0.8418 1.3945,-1.45899 0.2266,-0.47656 0.3398,-1.17968 0.3398,-2.10938 z"
           id="path3214"
           style="font-size:24.00000763px;text-align:center;text-anchor:middle;marker:none" />
        <path
           d="m 1461.9074,595.08093 4.5468,-6.46875 -4.207,-5.97656 2.6367,0 1.9102,2.91797 c 0.3593,0.55469 0.6484,1.01954 0.8672,1.39453 0.3437,-0.51562 0.6601,-0.97265 0.9492,-1.3711 l 2.0976,-2.9414 2.5196,0 -4.3008,5.85937 4.6289,6.58594 -2.5898,0 -2.5547,-3.86719 -0.6797,-1.04297 -3.2696,4.91016 z"
           id="path3216"
           style="font-size:24.00000763px;text-align:center;text-anchor:middle;marker:none" />
        <path
           d="m 1475.3253,580.32702 0,-2.42578 2.1094,0 0,2.42578 z m 0,14.75391 0,-12.44531 2.1094,0 0,12.44531 z"
           id="path3218"
           style="font-size:24.00000763px;text-align:center;text-anchor:middle;marker:none" />
        <path
           d="m 1479.8136,591.36609 2.0859,-0.32813 c 0.1172,0.83594 0.4434,1.47657 0.9786,1.92188 0.5351,0.44531 1.2832,0.66797 2.2441,0.66797 0.9688,0 1.6875,-0.19727 2.1563,-0.5918 0.4687,-0.39453 0.7031,-0.85742 0.7031,-1.38867 0,-0.47656 -0.2071,-0.85156 -0.6211,-1.125 -0.2891,-0.1875 -1.0078,-0.42578 -2.1563,-0.71485 -1.5468,-0.39062 -2.6191,-0.72851 -3.2168,-1.01367 -0.5976,-0.28515 -1.0507,-0.67968 -1.3593,-1.18359 -0.3086,-0.5039 -0.4629,-1.06054 -0.4629,-1.66993 0,-0.55467 0.1269,-1.06834 0.3808,-1.54101 0.2539,-0.47265 0.5996,-0.86522 1.0371,-1.17774 0.3282,-0.24217 0.7754,-0.44725 1.3418,-0.61523 0.5664,-0.16796 1.1739,-0.25194 1.8223,-0.25195 0.9766,10e-6 1.834,0.14063 2.5723,0.42187 0.7382,0.28126 1.2832,0.66212 1.6347,1.14258 0.3516,0.48048 0.5938,1.12306 0.7266,1.92773 l -2.0625,0.28125 c -0.094,-0.64061 -0.3652,-1.14061 -0.8145,-1.5 -0.4492,-0.35936 -1.0839,-0.53905 -1.9042,-0.53906 -0.9688,10e-6 -1.6602,0.16017 -2.0743,0.48047 -0.414,0.32032 -0.6211,0.69532 -0.6211,1.125 0,0.27345 0.086,0.51954 0.2579,0.73828 0.1718,0.22657 0.4414,0.41407 0.8085,0.5625 0.211,0.0781 0.8321,0.25782 1.8633,0.53907 1.4922,0.39844 2.5332,0.72461 3.1231,0.97851 0.5898,0.25391 1.0527,0.62305 1.3886,1.10742 0.336,0.48438 0.5039,1.08595 0.504,1.80469 -10e-5,0.70313 -0.2051,1.36524 -0.6153,1.98633 -0.4101,0.6211 -1.0019,1.10156 -1.7754,1.44141 -0.7734,0.33984 -1.6484,0.50976 -2.625,0.50976 -1.6172,0 -2.8496,-0.33593 -3.6972,-1.00781 -0.8477,-0.67187 -1.3887,-1.66797 -1.6231,-2.98828 z"
           id="path3220"
           style="font-size:24.00000763px;text-align:center;text-anchor:middle;marker:none" />
      </g>
      <path
         d="m 56.880737,451.22872 c -21.7018,-64.81001 9.041194,-136.47149 68.666403,-160.06041 59.6252,-23.58891 125.55376,9.82739 147.25556,74.6374 9.23827,27.58903 9.23826,57.83398 0,85.42301 L 164.84172,408.51721 z"
         transform="matrix(-1.7318607,0,0,1.5925195,1785.4558,298.42599)"
         id="path3424-6-3-2"
         style="color:#000000;fill:#89ffff;fill-opacity:1;fill-rule:nonzero;stroke:#000000;stroke-width:1.20429015;stroke-miterlimit:4;marker:none;visibility:visible;display:inline;overflow:visible;enable-background:accumulate" />
      <path
         d="M 65.344338,346.07717 C 97.070245,286.34794 167.33567,265.8832 222.28656,300.36788 c 17.46544,10.96052 31.96886,26.72511 42.05254,45.70928 l -99.49738,62.44005 z"
         transform="matrix(-1.7246122,0,0,1.5852563,1784.288,300.46503)"
         id="path3424-6-4-5-8-7"
         style="color:#000000;fill:#89ffff;fill-opacity:1;fill-rule:nonzero;stroke:#000000;stroke-width:1.20957983;stroke-miterlimit:4;marker:none;visibility:visible;display:inline;overflow:visible;enable-background:accumulate" />
      <g
         id="text4205-8-4-0-9-9-5-3-2"
         style="font-size:18.00000572px;font-style:normal;font-variant:normal;font-weight:normal;font-stretch:normal;text-indent:0;text-align:start;text-decoration:none;line-height:100%;letter-spacing:0px;word-spacing:0px;text-transform:none;direction:ltr;block-progression:tb;writing-mode:tb-rl;text-anchor:start;baseline-shift:baseline;color:#000000;fill:#000000;fill-opacity:1;fill-rule:nonzero;stroke:none;stroke-width:1;marker:none;visibility:visible;display:inline;overflow:visible;enable-background:accumulate;font-family:Arial;-inkscape-font-specification:Arial">
        <path
           d="m 1464.0966,699.40302 0,2.02734 -11.3555,0 c -0.016,-0.50781 0.066,-0.99609 0.2461,-1.46484 0.289,-0.77344 0.7519,-1.53516 1.3887,-2.28516 0.6367,-0.75 1.5566,-1.61718 2.7597,-2.60156 1.8672,-1.53125 3.1289,-2.74414 3.7852,-3.63868 0.6562,-0.89452 0.9843,-1.74022 0.9844,-2.5371 -10e-5,-0.83593 -0.2989,-1.54101 -0.8965,-2.11524 -0.5977,-0.5742 -1.377,-0.86131 -2.3379,-0.86133 -1.0157,2e-5 -1.8282,0.30471 -2.4375,0.91407 -0.6094,0.60938 -0.918,1.45313 -0.9258,2.53125 l -2.168,-0.22266 c 0.1485,-1.61717 0.7071,-2.8496 1.6758,-3.69727 0.9688,-0.84764 2.2695,-1.27146 3.9024,-1.27148 1.6484,2e-5 2.9531,0.45705 3.914,1.37109 0.9609,0.91408 1.4414,2.04689 1.4414,3.39844 0,0.68751 -0.1406,1.36329 -0.4219,2.02734 -0.2812,0.66408 -0.748,1.36329 -1.4003,2.09766 -0.6524,0.73438 -1.7364,1.74219 -3.252,3.02344 -1.2656,1.0625 -2.0781,1.7832 -2.4375,2.16211 -0.3594,0.37891 -0.6563,0.75977 -0.8906,1.14258 z"
           id="path3225"
           style="font-size:24px;text-align:center;line-height:100%;text-anchor:middle;marker:none;-inkscape-font-specification:Arial" />
        <path
           d="m 1466.37,692.9577 c 0,-2.03124 0.209,-3.666 0.6269,-4.90429 0.418,-1.23827 1.0391,-2.19335 1.8633,-2.86524 0.8242,-0.67186 1.8614,-1.00779 3.1114,-1.00781 0.9218,2e-5 1.7304,0.18556 2.4257,0.55664 0.6953,0.37111 1.2696,0.90627 1.7227,1.60547 0.4531,0.69923 0.8086,1.55079 1.0664,2.55469 0.2578,1.00391 0.3867,2.35743 0.3867,4.06054 0,2.01563 -0.207,3.64259 -0.6211,4.88086 -0.414,1.23829 -1.0332,2.19532 -1.8574,2.8711 -0.8242,0.67578 -1.8652,1.01367 -3.123,1.01367 -1.6563,0 -2.9571,-0.59375 -3.9024,-1.78125 -1.1328,-1.42969 -1.6992,-3.75781 -1.6992,-6.98438 z m 2.168,0 c 0,2.82032 0.33,4.69727 0.9902,5.63086 0.6601,0.9336 1.4746,1.40039 2.4434,1.40039 0.9687,0 1.7832,-0.46875 2.4433,-1.40625 0.6602,-0.93749 0.9902,-2.81249 0.9903,-5.625 -10e-5,-2.82811 -0.3301,-4.70702 -0.9903,-5.63672 -0.6601,-0.92967 -1.4824,-1.39451 -2.4668,-1.39453 -0.9687,2e-5 -1.7422,0.41017 -2.3203,1.23047 -0.7266,1.04689 -1.0898,2.98048 -1.0898,5.80078 z"
           id="path3227"
           style="font-size:24px;text-align:center;line-height:100%;text-anchor:middle;marker:none;-inkscape-font-specification:Arial" />
        <path
           d="m 1479.7294,692.9577 c 0,-2.03124 0.209,-3.666 0.6269,-4.90429 0.418,-1.23827 1.0391,-2.19335 1.8633,-2.86524 0.8242,-0.67186 1.8613,-1.00779 3.1113,-1.00781 0.9219,2e-5 1.7305,0.18556 2.4258,0.55664 0.6953,0.37111 1.2695,0.90627 1.7227,1.60547 0.4531,0.69923 0.8086,1.55079 1.0664,2.55469 0.2578,1.00391 0.3867,2.35743 0.3867,4.06054 0,2.01563 -0.207,3.64259 -0.6211,4.88086 -0.4141,1.23829 -1.0332,2.19532 -1.8574,2.8711 -0.8242,0.67578 -1.8653,1.01367 -3.1231,1.01367 -1.6562,0 -2.957,-0.59375 -3.9023,-1.78125 -1.1328,-1.42969 -1.6992,-3.75781 -1.6992,-6.98438 z m 2.1679,0 c 0,2.82032 0.3301,4.69727 0.9903,5.63086 0.6601,0.9336 1.4746,1.40039 2.4433,1.40039 0.9688,0 1.7832,-0.46875 2.4434,-1.40625 0.6601,-0.93749 0.9902,-2.81249 0.9902,-5.625 0,-2.82811 -0.3301,-4.70702 -0.9902,-5.63672 -0.6602,-0.92967 -1.4824,-1.39451 -2.4668,-1.39453 -0.9688,2e-5 -1.7422,0.41017 -2.3203,1.23047 -0.7266,1.04689 -1.0899,2.98048 -1.0899,5.80078 z"
           id="path3229"
           style="font-size:24px;text-align:center;line-height:100%;text-anchor:middle;marker:none;-inkscape-font-specification:Arial" />
        <path
           d="m 1492.8544,696.27411 0,-2.12109 6.4804,0 0,2.12109 z"
           id="path3231"
           style="font-size:24px;text-align:center;line-height:100%;text-anchor:middle;marker:none;-inkscape-font-specification:Arial" />
        <path
           d="m 1512.1903,699.40302 0,2.02734 -11.3555,0 c -0.016,-0.50781 0.066,-0.99609 0.2461,-1.46484 0.2891,-0.77344 0.752,-1.53516 1.3887,-2.28516 0.6367,-0.75 1.5566,-1.61718 2.7598,-2.60156 1.8672,-1.53125 3.1289,-2.74414 3.7851,-3.63868 0.6563,-0.89452 0.9844,-1.74022 0.9844,-2.5371 0,-0.83593 -0.2988,-1.54101 -0.8965,-2.11524 -0.5976,-0.5742 -1.3769,-0.86131 -2.3379,-0.86133 -1.0156,2e-5 -1.8281,0.30471 -2.4375,0.91407 -0.6094,0.60938 -0.9179,1.45313 -0.9258,2.53125 l -2.1679,-0.22266 c 0.1484,-1.61717 0.707,-2.8496 1.6758,-3.69727 0.9687,-0.84764 2.2695,-1.27146 3.9023,-1.27148 1.6484,2e-5 2.9531,0.45705 3.9141,1.37109 0.9609,0.91408 1.4414,2.04689 1.4414,3.39844 0,0.68751 -0.1407,1.36329 -0.4219,2.02734 -0.2813,0.66408 -0.7481,1.36329 -1.4004,2.09766 -0.6523,0.73438 -1.7363,1.74219 -3.2519,3.02344 -1.2657,1.0625 -2.0782,1.7832 -2.4375,2.16211 -0.3594,0.37891 -0.6563,0.75977 -0.8907,1.14258 z"
           id="path3233"
           style="font-size:24px;text-align:center;line-height:100%;text-anchor:middle;marker:none;-inkscape-font-specification:Arial" />
        <path
           d="m 1525.5497,699.40302 0,2.02734 -11.3555,0 c -0.016,-0.50781 0.066,-0.99609 0.2461,-1.46484 0.2891,-0.77344 0.752,-1.53516 1.3887,-2.28516 0.6367,-0.75 1.5566,-1.61718 2.7597,-2.60156 1.8672,-1.53125 3.1289,-2.74414 3.7852,-3.63868 0.6562,-0.89452 0.9844,-1.74022 0.9844,-2.5371 0,-0.83593 -0.2989,-1.54101 -0.8965,-2.11524 -0.5977,-0.5742 -1.377,-0.86131 -2.3379,-0.86133 -1.0156,2e-5 -1.8281,0.30471 -2.4375,0.91407 -0.6094,0.60938 -0.918,1.45313 -0.9258,2.53125 l -2.1679,-0.22266 c 0.1484,-1.61717 0.707,-2.8496 1.6757,-3.69727 0.9688,-0.84764 2.2696,-1.27146 3.9024,-1.27148 1.6484,2e-5 2.9531,0.45705 3.914,1.37109 0.961,0.91408 1.4414,2.04689 1.4414,3.39844 0,0.68751 -0.1406,1.36329 -0.4218,2.02734 -0.2813,0.66408 -0.7481,1.36329 -1.4004,2.09766 -0.6524,0.73438 -1.7364,1.74219 -3.252,3.02344 -1.2656,1.0625 -2.0781,1.7832 -2.4375,2.16211 -0.3594,0.37891 -0.6562,0.75977 -0.8906,1.14258 z"
           id="path3235"
           style="font-size:24px;text-align:center;line-height:100%;text-anchor:middle;marker:none;-inkscape-font-specification:Arial" />
        <path
           d="m 1527.8231,692.9577 c 0,-2.03124 0.209,-3.666 0.627,-4.90429 0.4179,-1.23827 1.039,-2.19335 1.8633,-2.86524 0.8242,-0.67186 1.8613,-1.00779 3.1113,-1.00781 0.9219,2e-5 1.7304,0.18556 2.4258,0.55664 0.6953,0.37111 1.2695,0.90627 1.7226,1.60547 0.4531,0.69923 0.8086,1.55079 1.0664,2.55469 0.2578,1.00391 0.3867,2.35743 0.3867,4.06054 0,2.01563 -0.207,3.64259 -0.621,4.88086 -0.4141,1.23829 -1.0333,2.19532 -1.8575,2.8711 -0.8242,0.67578 -1.8652,1.01367 -3.123,1.01367 -1.6563,0 -2.9571,-0.59375 -3.9024,-1.78125 -1.1328,-1.42969 -1.6992,-3.75781 -1.6992,-6.98438 z m 2.168,0 c 0,2.82032 0.3301,4.69727 0.9902,5.63086 0.6602,0.9336 1.4746,1.40039 2.4434,1.40039 0.9687,0 1.7832,-0.46875 2.4433,-1.40625 0.6602,-0.93749 0.9903,-2.81249 0.9903,-5.625 0,-2.82811 -0.3301,-4.70702 -0.9903,-5.63672 -0.6601,-0.92967 -1.4824,-1.39451 -2.4668,-1.39453 -0.9687,2e-5 -1.7421,0.41017 -2.3203,1.23047 -0.7265,1.04689 -1.0898,2.98048 -1.0898,5.80078 z"
           id="path3237"
           style="font-size:24px;text-align:center;line-height:100%;text-anchor:middle;marker:none;-inkscape-font-specification:Arial" />
        <path
           d="m 1541.6864,687.2038 c 0,-0.89843 0.3184,-1.66405 0.9551,-2.29688 0.6367,-0.63279 1.4004,-0.9492 2.291,-0.94922 0.9062,2e-5 1.6758,0.31643 2.3086,0.94922 0.6328,0.63283 0.9492,1.39845 0.9492,2.29688 0,0.89845 -0.3184,1.66602 -0.9551,2.30273 -0.6367,0.63673 -1.4043,0.95509 -2.3027,0.95508 -0.8906,1e-5 -1.6543,-0.3164 -2.291,-0.94922 -0.6367,-0.6328 -0.9551,-1.40233 -0.9551,-2.30859 z m 1.2773,0 c 0,0.54689 0.1934,1.01368 0.5801,1.40039 0.3867,0.38673 0.8535,0.58009 1.4004,0.58008 0.5391,10e-6 1.002,-0.19335 1.3887,-0.58008 0.3867,-0.38671 0.5801,-0.8535 0.5801,-1.40039 0,-0.54686 -0.1934,-1.01366 -0.5801,-1.40039 -0.3867,-0.38671 -0.8496,-0.58007 -1.3887,-0.58008 -0.5469,10e-6 -1.0137,0.19337 -1.4004,0.58008 -0.3867,0.38673 -0.5801,0.85353 -0.5801,1.40039 z"
           id="path3239"
           style="font-size:24px;text-align:center;line-height:100%;text-anchor:middle;marker:none;-inkscape-font-specification:Arial" />
        <path
           d="m 1423.0341,725.43036 -1.9571,0 0,-17.17969 2.1094,0 0,6.12891 c 0.8906,-1.11718 2.0273,-1.67577 3.4102,-1.67578 0.7656,10e-6 1.4902,0.15431 2.1738,0.46289 0.6836,0.3086 1.2461,0.7422 1.6875,1.30078 0.4414,0.5586 0.7871,1.23243 1.0371,2.02148 0.25,0.78907 0.375,1.63282 0.375,2.53125 0,2.13282 -0.5274,3.78126 -1.582,4.94532 -1.0547,1.16406 -2.3204,1.74609 -3.7969,1.74609 -1.4688,0 -2.6211,-0.61328 -3.457,-1.83984 z m -0.024,-6.31641 c 0,1.49219 0.2031,2.57032 0.6094,3.23438 0.6641,1.08594 1.5625,1.62891 2.6953,1.6289 0.9219,1e-5 1.7187,-0.40038 2.3906,-1.20117 0.6719,-0.80078 1.0078,-1.99413 1.0078,-3.58008 0,-1.62499 -0.3222,-2.82421 -0.9668,-3.59765 -0.6445,-0.77343 -1.4238,-1.16015 -2.3378,-1.16016 -0.9219,10e-6 -1.7188,0.4004 -2.3907,1.20117 -0.6718,0.80079 -1.0078,1.959 -1.0078,3.47461 z"
           id="path3241"
           style="font-size:24px;text-align:center;line-height:100%;text-anchor:middle;marker:none;-inkscape-font-specification:Arial" />
        <path
           d="m 1433.663,719.2077 c 0,-2.30468 0.6406,-4.01171 1.9218,-5.12109 1.0703,-0.92186 2.375,-1.3828 3.9141,-1.38281 1.7109,10e-6 3.1094,0.56056 4.1953,1.68164 1.0859,1.1211 1.6289,2.66993 1.6289,4.64648 0,1.60157 -0.2402,2.86133 -0.7207,3.7793 -0.4805,0.91797 -1.1797,1.63086 -2.0976,2.13867 -0.918,0.50781 -1.92,0.76172 -3.0059,0.76172 -1.7422,0 -3.1504,-0.55859 -4.2246,-1.67578 -1.0742,-1.11719 -1.6113,-2.72656 -1.6113,-4.82813 z m 2.1679,0 c 0,1.59376 0.3477,2.78712 1.043,3.58008 0.6953,0.79297 1.5703,1.18946 2.625,1.18945 1.0469,1e-5 1.918,-0.39843 2.6133,-1.19531 0.6953,-0.79687 1.0429,-2.01171 1.043,-3.64453 -10e-5,-1.53905 -0.3497,-2.70507 -1.0489,-3.49805 -0.6992,-0.79295 -1.5683,-1.18944 -2.6074,-1.18945 -1.0547,10e-6 -1.9297,0.39454 -2.625,1.18359 -0.6953,0.78908 -1.043,1.98048 -1.043,3.57422 z"
           id="path3243"
           style="font-size:24px;text-align:center;line-height:100%;text-anchor:middle;marker:none;-inkscape-font-specification:Arial" />
        <path
           d="m 1452.413,723.54364 0.3047,1.86328 c -0.5938,0.125 -1.1251,0.1875 -1.5938,0.1875 -0.7656,0 -1.3594,-0.12109 -1.7812,-0.36328 -0.4219,-0.24219 -0.7188,-0.56055 -0.8907,-0.95508 -0.1719,-0.39453 -0.2578,-1.2246 -0.2578,-2.49023 l 0,-7.16016 -1.5469,0 0,-1.64062 1.5469,0 0,-3.08203 2.0977,-1.26563 0,4.34766 2.1211,0 0,1.64062 -2.1211,0 0,7.27735 c 0,0.60156 0.037,0.98828 0.1113,1.16015 0.074,0.17188 0.1953,0.3086 0.3633,0.41016 0.1679,0.10156 0.4082,0.15234 0.7207,0.15234 0.2344,0 0.5429,-0.0273 0.9258,-0.082 z"
           id="path3245"
           style="font-size:24px;text-align:center;line-height:100%;text-anchor:middle;marker:none;-inkscape-font-specification:Arial" />
        <path
           d="m 1454.4637,725.43036 0,-17.17969 2.1094,0 0,6.16406 c 0.9844,-1.14061 2.2266,-1.71092 3.7266,-1.71093 0.9218,10e-6 1.7226,0.18165 2.4023,0.54492 0.6797,0.36329 1.166,0.86524 1.459,1.50586 0.293,0.64063 0.4395,1.57032 0.4395,2.78906 l 0,7.88672 -2.1094,0 0,-7.88672 c 0,-1.05468 -0.2285,-1.82226 -0.6856,-2.30273 -0.457,-0.48046 -1.1035,-0.7207 -1.9394,-0.72071 -0.625,10e-6 -1.2129,0.16212 -1.7637,0.48633 -0.5508,0.32423 -0.9433,0.76368 -1.1777,1.31836 -0.2344,0.5547 -0.3516,1.32032 -0.3516,2.29688 l 0,6.80859 z"
           id="path3247"
           style="font-size:24px;text-align:center;line-height:100%;text-anchor:middle;marker:none;-inkscape-font-specification:Arial" />
        <path
           d="m 1482.9989,721.42255 2.1797,0.26953 c -0.3438,1.27344 -0.9805,2.26172 -1.9102,2.96484 -0.9297,0.70313 -2.1172,1.05469 -3.5625,1.05469 -1.8203,0 -3.2636,-0.56055 -4.33,-1.68164 -1.0665,-1.12109 -1.5997,-2.69336 -1.5997,-4.7168 0,-2.09374 0.5391,-3.71874 1.6172,-4.875 1.0782,-1.15624 2.4766,-1.73436 4.1953,-1.73437 1.6641,10e-6 3.0235,0.56641 4.0782,1.69922 1.0546,1.13282 1.582,2.72657 1.582,4.78125 0,0.125 0,0.3125 -0.012,0.5625 l -9.2813,0 c 0.078,1.36719 0.4649,2.41406 1.1602,3.14062 0.6953,0.72656 1.5625,1.08985 2.6016,1.08984 0.7734,1e-5 1.4335,-0.20312 1.9804,-0.60937 0.5469,-0.40625 0.9805,-1.05469 1.3008,-1.94531 z m -6.9258,-3.41016 6.9492,0 c -0.094,-1.04687 -0.3593,-1.83202 -0.7968,-2.35547 -0.6719,-0.81249 -1.543,-1.21874 -2.6133,-1.21875 -0.9688,10e-6 -1.7832,0.32423 -2.4434,0.97266 -0.6601,0.64844 -1.0254,1.51563 -1.0957,2.60156 z"
           id="path3249"
           style="font-size:24px;text-align:center;line-height:100%;text-anchor:middle;marker:none;-inkscape-font-specification:Arial" />
        <path
           d="m 1487.745,730.22333 -0.2344,-1.98047 c 0.461,0.125 0.8633,0.1875 1.2071,0.1875 0.4687,0 0.8437,-0.0781 1.125,-0.23438 0.2812,-0.15625 0.5117,-0.375 0.6914,-0.65625 0.1328,-0.21094 0.3476,-0.73437 0.6445,-1.57031 0.039,-0.11719 0.1015,-0.28906 0.1875,-0.51562 l -4.7227,-12.46875 2.2735,0 2.5898,7.20703 c 0.3359,0.91406 0.6367,1.875 0.9024,2.88281 0.2421,-0.96875 0.5312,-1.91406 0.8671,-2.83594 l 2.6602,-7.2539 2.1094,0 -4.7344,12.65625 c -0.5078,1.36718 -0.9023,2.30859 -1.1836,2.82422 -0.375,0.6953 -0.8047,1.20507 -1.2891,1.52929 -0.4843,0.32422 -1.0625,0.48633 -1.7343,0.48633 -0.4063,0 -0.8594,-0.0859 -1.3594,-0.25781 z"
           id="path3251"
           style="font-size:24px;text-align:center;line-height:100%;text-anchor:middle;marker:none;-inkscape-font-specification:Arial" />
        <path
           d="m 1508.3583,721.42255 2.1797,0.26953 c -0.3438,1.27344 -0.9805,2.26172 -1.9102,2.96484 -0.9297,0.70313 -2.1172,1.05469 -3.5625,1.05469 -1.8203,0 -3.2637,-0.56055 -4.3301,-1.68164 -1.0664,-1.12109 -1.5996,-2.69336 -1.5996,-4.7168 0,-2.09374 0.5391,-3.71874 1.6172,-4.875 1.0781,-1.15624 2.4766,-1.73436 4.1953,-1.73437 1.6641,10e-6 3.0234,0.56641 4.0781,1.69922 1.0547,1.13282 1.5821,2.72657 1.5821,4.78125 0,0.125 0,0.3125 -0.012,0.5625 l -9.2813,0 c 0.078,1.36719 0.4648,2.41406 1.1602,3.14062 0.6953,0.72656 1.5625,1.08985 2.6015,1.08984 0.7735,1e-5 1.4336,-0.20312 1.9805,-0.60937 0.5469,-0.40625 0.9805,-1.05469 1.3008,-1.94531 z m -6.9258,-3.41016 6.9492,0 c -0.094,-1.04687 -0.3594,-1.83202 -0.7969,-2.35547 -0.6718,-0.81249 -1.5429,-1.21874 -2.6132,-1.21875 -0.9688,10e-6 -1.7833,0.32423 -2.4434,0.97266 -0.6602,0.64844 -1.0254,1.51563 -1.0957,2.60156 z"
           id="path3253"
           style="font-size:24px;text-align:center;line-height:100%;text-anchor:middle;marker:none;-inkscape-font-specification:Arial" />
        <path
           d="m 1512.3544,721.71552 2.0859,-0.32813 c 0.1172,0.83594 0.4434,1.47657 0.9785,1.92188 0.5352,0.44531 1.2832,0.66797 2.2442,0.66796 0.9687,1e-5 1.6875,-0.19726 2.1562,-0.59179 0.4688,-0.39453 0.7031,-0.85742 0.7031,-1.38867 0,-0.47656 -0.207,-0.85156 -0.6211,-1.125 -0.289,-0.1875 -1.0078,-0.42578 -2.1562,-0.71485 -1.5469,-0.39062 -2.6191,-0.72851 -3.2168,-1.01367 -0.5977,-0.28515 -1.0508,-0.67968 -1.3594,-1.18359 -0.3086,-0.5039 -0.4629,-1.06054 -0.4629,-1.66993 0,-0.55467 0.127,-1.06835 0.3809,-1.54101 0.2539,-0.47265 0.5996,-0.86522 1.0371,-1.17774 0.3281,-0.24217 0.7754,-0.44725 1.3418,-0.61523 0.5664,-0.16796 1.1738,-0.25194 1.8223,-0.25195 0.9765,10e-6 1.8339,0.14063 2.5722,0.42187 0.7383,0.28126 1.2832,0.66212 1.6348,1.14258 0.3515,0.48048 0.5937,1.12306 0.7266,1.92773 l -2.0625,0.28125 c -0.094,-0.64061 -0.3653,-1.14061 -0.8145,-1.5 -0.4492,-0.35936 -1.084,-0.53905 -1.9043,-0.53906 -0.9687,10e-6 -1.6602,0.16017 -2.0742,0.48047 -0.4141,0.32032 -0.6211,0.69532 -0.6211,1.125 0,0.27345 0.086,0.51954 0.2578,0.73828 0.1719,0.22657 0.4414,0.41407 0.8086,0.5625 0.2109,0.0781 0.832,0.25782 1.8633,0.53906 1.4922,0.39845 2.5332,0.72462 3.123,0.97852 0.5899,0.25391 1.0528,0.62305 1.3887,1.10742 0.3359,0.48438 0.5039,1.08594 0.5039,1.80469 0,0.70313 -0.2051,1.36524 -0.6152,1.98633 -0.4102,0.62109 -1.002,1.10156 -1.7754,1.4414 -0.7735,0.33985 -1.6485,0.50977 -2.625,0.50977 -1.6172,0 -2.8496,-0.33594 -3.6973,-1.00781 -0.8476,-0.67188 -1.3887,-1.66797 -1.623,-2.98828 z"
           id="path3255"
           style="font-size:24px;text-align:center;line-height:100%;text-anchor:middle;marker:none;-inkscape-font-specification:Arial" />
        <path
           d="m 1535.8856,730.48114 c -1.164,-1.46875 -2.1484,-3.1875 -2.9531,-5.15625 -0.8047,-1.96875 -1.207,-4.00781 -1.207,-6.11719 0,-1.85936 0.3007,-3.64061 0.9023,-5.34375 0.7031,-1.97655 1.7891,-3.94529 3.2578,-5.90625 l 1.5117,0 c -0.9453,1.62502 -1.5703,2.78517 -1.875,3.48047 -0.4765,1.07814 -0.8515,2.20314 -1.125,3.375 -0.3359,1.46095 -0.5039,2.9297 -0.5039,4.40625 0,3.75782 1.168,7.51172 3.5039,11.26172 z"
           id="path3257"
           style="font-size:24px;text-align:center;line-height:100%;text-anchor:middle;marker:none;-inkscape-font-specification:Arial" />
        <path
           d="m 1539.4481,717.06317 c 0,-2.85155 0.7656,-5.08397 2.2969,-6.69726 1.5312,-1.61327 3.5078,-2.41991 5.9297,-2.41993 1.5859,2e-5 3.0156,0.37893 4.289,1.13672 1.2735,0.75783 2.2442,1.81447 2.9122,3.16992 0.6679,1.35549 1.0019,2.89259 1.0019,4.61133 0,1.7422 -0.3516,3.30079 -1.0547,4.67578 -0.7031,1.37501 -1.6992,2.41602 -2.9883,3.12305 -1.289,0.70703 -2.6797,1.06055 -4.1718,1.06055 -1.6172,0 -3.0625,-0.39063 -4.336,-1.17188 -1.2734,-0.78125 -2.2383,-1.84765 -2.8945,-3.19922 -0.6563,-1.35155 -0.9844,-2.78124 -0.9844,-4.28906 z m 2.3438,0.0352 c 0,2.07032 0.5566,3.70117 1.6699,4.89258 1.1133,1.1914 2.5097,1.78711 4.1894,1.78711 1.711,0 3.1192,-0.60157 4.2247,-1.80469 1.1054,-1.20312 1.6581,-2.91015 1.6582,-5.1211 -10e-5,-1.39842 -0.2364,-2.61913 -0.709,-3.66211 -0.4727,-1.04295 -1.1641,-1.85154 -2.0742,-2.42578 -0.9102,-0.5742 -1.9317,-0.86131 -3.0645,-0.86132 -1.6094,10e-6 -2.9941,0.55274 -4.1543,1.6582 -1.1602,1.10548 -1.7402,2.95118 -1.7402,5.53711 z"
           id="path3259"
           style="font-size:24px;text-align:center;line-height:100%;text-anchor:middle;marker:none;-inkscape-font-specification:Arial" />
        <path
           d="m 1570.0692,708.25067 2.2735,0 0,9.92578 c -10e-5,1.72657 -0.1954,3.09766 -0.586,4.11328 -0.3906,1.01563 -1.0957,1.8418 -2.1152,2.47852 -1.0196,0.63672 -2.3575,0.95508 -4.0137,0.95508 -1.6094,0 -2.9258,-0.27735 -3.9492,-0.83203 -1.0235,-0.55469 -1.7539,-1.35742 -2.1914,-2.40821 -0.4375,-1.05077 -0.6563,-2.48632 -0.6563,-4.30664 l 0,-9.92578 2.2735,0 0,9.91406 c 0,1.4922 0.1386,2.59181 0.416,3.29883 0.2773,0.70704 0.7539,1.25196 1.4297,1.63477 0.6757,0.38281 1.5019,0.57422 2.4785,0.57422 1.6719,0 2.8633,-0.37891 3.5742,-1.13672 0.7109,-0.75781 1.0664,-2.21484 1.0664,-4.3711 z"
           id="path3261"
           style="font-size:24px;text-align:center;line-height:100%;text-anchor:middle;marker:none;-inkscape-font-specification:Arial" />
        <path
           d="m 1577.2528,730.48114 -1.5117,0 c 2.3359,-3.75 3.5039,-7.5039 3.5039,-11.26172 0,-1.46874 -0.168,-2.92577 -0.5039,-4.37109 -0.2656,-1.17187 -0.6367,-2.29686 -1.1133,-3.375 -0.3047,-0.70311 -0.9336,-1.87499 -1.8867,-3.51563 l 1.5117,0 c 1.4688,1.96096 2.5547,3.9297 3.2578,5.90625 0.6016,1.70314 0.9024,3.48439 0.9024,5.34375 0,2.10938 -0.4043,4.14844 -1.2129,6.11719 -0.8086,1.96875 -1.791,3.6875 -2.9473,5.15625 z"
           id="path3263"
           style="font-size:24px;text-align:center;line-height:100%;text-anchor:middle;marker:none;-inkscape-font-specification:Arial" />
      </g>
      <path
         d="M 1792.0995,998.22172 1499.7508,946.67276"
         id="path4247-8-5"
         style="fill:none;stroke:#000000;stroke-width:2;stroke-linecap:butt;stroke-linejoin:miter;stroke-miterlimit:4;stroke-opacity:1;stroke-dasharray:8, 8;stroke-dashoffset:0" />
      <g
         id="text4205-8-4-0-9-9-85-6-4"
         style="font-size:18.00000572px;font-style:normal;font-variant:normal;font-weight:normal;font-stretch:normal;text-indent:0;text-align:start;text-decoration:none;line-height:100%;letter-spacing:0px;word-spacing:0px;text-transform:none;direction:ltr;block-progression:tb;writing-mode:tb-rl;text-anchor:start;baseline-shift:baseline;color:#000000;fill:#000000;fill-opacity:1;fill-rule:nonzero;stroke:none;stroke-width:1;marker:none;visibility:visible;display:inline;overflow:visible;enable-background:accumulate;font-family:Arial;-inkscape-font-specification:Arial">
        <path
           d="m 1462.9903,822.91882 -1.957,0 0,-17.17969 2.1094,0 0,6.12891 c 0.8906,-1.11718 2.0273,-1.67577 3.4101,-1.67578 0.7657,10e-6 1.4903,0.15431 2.1739,0.46289 0.6836,0.3086 1.2461,0.7422 1.6875,1.30078 0.4414,0.5586 0.7871,1.23243 1.0371,2.02148 0.25,0.78908 0.375,1.63282 0.375,2.53125 0,2.13282 -0.5274,3.78126 -1.582,4.94532 -1.0547,1.16406 -2.3204,1.74609 -3.7969,1.74609 -1.4688,0 -2.6211,-0.61328 -3.4571,-1.83984 z m -0.023,-6.31641 c 0,1.4922 0.2031,2.57032 0.6094,3.23438 0.664,1.08594 1.5625,1.62891 2.6953,1.62891 0.9219,0 1.7187,-0.40039 2.3906,-1.20117 0.6719,-0.80078 1.0078,-1.99414 1.0078,-3.58008 0,-1.625 -0.3222,-2.82421 -0.9668,-3.59766 -0.6445,-0.77343 -1.4238,-1.16015 -2.3379,-1.16016 -0.9218,10e-6 -1.7187,0.4004 -2.3906,1.20117 -0.6719,0.80079 -1.0078,1.959 -1.0078,3.47461 z"
           id="path3266"
           style="font-size:24.00000763px;text-align:center;line-height:100%;text-anchor:middle;marker:none;-inkscape-font-specification:Arial" />
        <path
           d="m 1474.4161,808.16491 0,-2.42578 2.1094,0 0,2.42578 z m 0,14.75391 0,-12.44531 2.1094,0 0,12.44531 z"
           id="path3268"
           style="font-size:24.00000763px;text-align:center;line-height:100%;text-anchor:middle;marker:none;-inkscape-font-specification:Arial" />
        <path
           d="m 1479.7482,822.91882 0,-12.44531 1.8984,0 0,1.76953 c 0.9141,-1.36718 2.2344,-2.05077 3.9609,-2.05078 0.75,10e-6 1.4395,0.13477 2.0684,0.40429 0.6289,0.26955 1.0996,0.62306 1.4121,1.06055 0.3125,0.43751 0.5312,0.95704 0.6563,1.5586 0.078,0.39063 0.1171,1.07422 0.1171,2.05078 l 0,7.65234 -2.1093,0 0,-7.57031 c 0,-0.85937 -0.082,-1.50195 -0.2461,-1.92774 -0.1641,-0.42577 -0.4551,-0.76561 -0.8731,-1.01953 -0.4179,-0.25389 -0.9082,-0.38085 -1.4707,-0.38086 -0.8984,10e-6 -1.6738,0.28517 -2.3261,0.85547 -0.6524,0.57032 -0.9786,1.65235 -0.9786,3.2461 l 0,6.79687 z"
           id="path3270"
           style="font-size:24.00000763px;text-align:center;line-height:100%;text-anchor:middle;marker:none;-inkscape-font-specification:Arial" />
        <path
           d="m 1492.3224,816.69617 c 0,-2.30468 0.6406,-4.01171 1.9219,-5.1211 1.0703,-0.92186 2.375,-1.3828 3.914,-1.38281 1.7109,10e-6 3.1094,0.56056 4.1953,1.68164 1.086,1.1211 1.6289,2.66993 1.6289,4.64648 0,1.60157 -0.2402,2.86134 -0.7207,3.7793 -0.4804,0.91797 -1.1797,1.63086 -2.0976,2.13867 -0.918,0.50782 -1.92,0.76172 -3.0059,0.76172 -1.7422,0 -3.1504,-0.55859 -4.2246,-1.67578 -1.0742,-1.11718 -1.6113,-2.72656 -1.6113,-4.82812 z m 2.1679,0 c 0,1.59375 0.3477,2.78711 1.043,3.58007 0.6953,0.79298 1.5703,1.18946 2.625,1.18946 1.0469,0 1.918,-0.39844 2.6133,-1.19532 0.6953,-0.79687 1.043,-2.01171 1.043,-3.64453 0,-1.53905 -0.3496,-2.70507 -1.0489,-3.49805 -0.6992,-0.79295 -1.5683,-1.18944 -2.6074,-1.18945 -1.0547,10e-6 -1.9297,0.39454 -2.625,1.1836 -0.6953,0.78907 -1.043,1.98047 -1.043,3.57422 z"
           id="path3272"
           style="font-size:24.00000763px;text-align:center;line-height:100%;text-anchor:middle;marker:none;-inkscape-font-specification:Arial" />
        <path
           d="m 1514.588,818.36023 2.0742,0.26953 c -0.2265,1.42969 -0.8066,2.54883 -1.7402,3.35742 -0.9336,0.8086 -2.0801,1.21289 -3.4395,1.21289 -1.7031,0 -3.0722,-0.55664 -4.1074,-1.66992 -1.0351,-1.11328 -1.5527,-2.70898 -1.5527,-4.78711 0,-1.34374 0.2226,-2.51952 0.668,-3.52734 0.4453,-1.00781 1.123,-1.76367 2.0332,-2.26758 0.9101,-0.5039 1.9003,-0.75585 2.9707,-0.75586 1.3515,10e-6 2.457,0.34181 3.3164,1.02539 0.8593,0.6836 1.4101,1.65431 1.6523,2.91211 l -2.0508,0.3164 c -0.1953,-0.83592 -0.541,-1.46483 -1.0371,-1.88672 -0.4961,-0.42186 -1.0957,-0.6328 -1.7988,-0.63281 -1.0625,10e-6 -1.9258,0.38087 -2.5898,1.14258 -0.6641,0.76173 -0.9961,1.96681 -0.9961,3.61524 0,1.67188 0.3203,2.88672 0.9609,3.64453 0.6406,0.75781 1.4766,1.13672 2.5078,1.13672 0.8281,0 1.5195,-0.25391 2.0742,-0.76172 0.5547,-0.50781 0.9063,-1.28906 1.0547,-2.34375 z"
           id="path3274"
           style="font-size:24.00000763px;text-align:center;line-height:100%;text-anchor:middle;marker:none;-inkscape-font-specification:Arial" />
        <path
           d="m 1526.6232,822.91882 0,-1.82812 c -0.9688,1.40625 -2.2852,2.10937 -3.9492,2.10937 -0.7344,0 -1.42,-0.14062 -2.0567,-0.42187 -0.6367,-0.28125 -1.1094,-0.63477 -1.418,-1.06055 -0.3086,-0.42578 -0.5254,-0.94726 -0.6503,-1.56445 -0.086,-0.41406 -0.129,-1.07031 -0.129,-1.96875 l 0,-7.71094 2.1094,0 0,6.90234 c 0,1.10157 0.043,1.84376 0.1289,2.22657 0.1328,0.55469 0.4141,0.99023 0.8438,1.30664 0.4297,0.31641 0.9609,0.47461 1.5937,0.47461 0.6328,0 1.2266,-0.16211 1.7813,-0.48633 0.5547,-0.32422 0.9472,-0.76562 1.1777,-1.32422 0.2305,-0.55859 0.3457,-1.36914 0.3457,-2.43164 l 0,-6.66797 2.1094,0 0,12.44531 z"
           id="path3276"
           style="font-size:24.00000763px;text-align:center;line-height:100%;text-anchor:middle;marker:none;-inkscape-font-specification:Arial" />
        <path
           d="m 1531.7794,822.91882 0,-17.17969 2.1094,0 0,17.17969 z"
           id="path3278"
           style="font-size:24.00000763px;text-align:center;line-height:100%;text-anchor:middle;marker:none;-inkscape-font-specification:Arial" />
        <path
           d="m 1545.2911,821.38367 c -0.7812,0.66406 -1.5332,1.13281 -2.2558,1.40625 -0.7227,0.27343 -1.4981,0.41015 -2.3262,0.41015 -1.3672,0 -2.418,-0.33398 -3.1523,-1.00195 -0.7344,-0.66797 -1.1016,-1.52148 -1.1016,-2.56055 0,-0.60937 0.1387,-1.16601 0.416,-1.66992 0.2774,-0.5039 0.6406,-0.9082 1.0899,-1.21289 0.4492,-0.30468 0.955,-0.53515 1.5175,-0.69141 0.4141,-0.10937 1.0391,-0.21483 1.875,-0.3164 1.7032,-0.20312 2.9571,-0.44531 3.7618,-0.72657 0.01,-0.28905 0.012,-0.47264 0.012,-0.55078 0,-0.85936 -0.1992,-1.46483 -0.5977,-1.81641 -0.539,-0.47655 -1.3398,-0.71483 -2.4023,-0.71484 -0.9922,10e-6 -1.7246,0.17384 -2.1973,0.52149 -0.4726,0.34766 -0.8223,0.9629 -1.0488,1.8457 l -2.0625,-0.28125 c 0.1875,-0.8828 0.4961,-1.59569 0.9258,-2.13867 0.4297,-0.54296 1.0507,-0.96093 1.8633,-1.25391 0.8124,-0.29296 1.7539,-0.43944 2.8242,-0.43945 1.0625,10e-6 1.9257,0.12501 2.5898,0.375 0.6641,0.25001 1.1524,0.56446 1.4649,0.94336 0.3124,0.37891 0.5312,0.85743 0.6562,1.43554 0.07,0.35939 0.1055,1.00783 0.1055,1.94532 l 0,2.8125 c 0,1.96094 0.045,3.20117 0.1347,3.7207 0.09,0.51953 0.2676,1.01758 0.5332,1.49414 l -2.2031,0 c -0.2187,-0.4375 -0.3594,-0.94921 -0.4219,-1.53515 z m -0.1757,-4.71094 c -0.7657,0.3125 -1.9141,0.57813 -3.4453,0.79687 -0.8672,0.12501 -1.4805,0.26563 -1.8399,0.42188 -0.3594,0.15625 -0.6367,0.38477 -0.832,0.68554 -0.1953,0.30079 -0.293,0.63477 -0.293,1.00196 0,0.5625 0.2129,1.03125 0.6387,1.40625 0.4258,0.375 1.0488,0.5625 1.8691,0.5625 0.8125,0 1.5352,-0.17773 2.168,-0.5332 0.6328,-0.35547 1.0976,-0.8418 1.3945,-1.45899 0.2266,-0.47656 0.3399,-1.17968 0.3399,-2.10937 z"
           id="path3280"
           style="font-size:24.00000763px;text-align:center;line-height:100%;text-anchor:middle;marker:none;-inkscape-font-specification:Arial" />
        <path
           d="m 1550.506,822.91882 0,-12.44531 1.8984,0 0,1.88672 c 0.4844,-0.88281 0.9317,-1.46484 1.3418,-1.7461 0.4102,-0.28124 0.8614,-0.42186 1.3535,-0.42187 0.711,10e-6 1.4336,0.22657 2.168,0.67968 l -0.7265,1.95704 c -0.5157,-0.30468 -1.0313,-0.45702 -1.5469,-0.45704 -0.461,2e-5 -0.875,0.13869 -1.2422,0.41602 -0.3672,0.27735 -0.6289,0.66212 -0.7852,1.1543 -0.2343,0.75001 -0.3515,1.57032 -0.3515,2.46094 l 0,6.51562 z"
           id="path3282"
           style="font-size:24.00000763px;text-align:center;line-height:100%;text-anchor:middle;marker:none;-inkscape-font-specification:Arial" />
        <path
           d="m 1492.3107,846.91883 -2.1094,0 0,-13.44141 c -0.5078,0.48439 -1.1738,0.96876 -1.9981,1.45313 -0.8242,0.48438 -1.5644,0.84766 -2.2207,1.08984 l 0,-2.03906 c 1.1797,-0.55468 2.211,-1.22655 3.0938,-2.01563 0.8828,-0.78905 1.5078,-1.55467 1.875,-2.29687 l 1.3594,0 z"
           id="path3284"
           style="font-size:24.00000763px;text-align:center;line-height:100%;text-anchor:middle;marker:none;-inkscape-font-specification:Arial" />
        <path
           d="m 1508.8107,844.89149 0,2.02734 -11.3555,0 c -0.016,-0.50781 0.066,-0.99609 0.2461,-1.46484 0.2891,-0.77344 0.7519,-1.53516 1.3887,-2.28516 0.6367,-0.75 1.5566,-1.61718 2.7597,-2.60156 1.8672,-1.53125 3.1289,-2.74414 3.7852,-3.63868 0.6562,-0.89452 0.9844,-1.74022 0.9844,-2.53711 0,-0.83592 -0.2989,-1.541 -0.8965,-2.11523 -0.5977,-0.57421 -1.377,-0.86131 -2.3379,-0.86133 -1.0156,2e-5 -1.8281,0.3047 -2.4375,0.91406 -0.6094,0.60939 -0.918,1.45314 -0.9258,2.53125 l -2.168,-0.22265 c 0.1485,-1.61718 0.7071,-2.8496 1.6758,-3.69727 0.9688,-0.84764 2.2695,-1.27147 3.9024,-1.27148 1.6484,1e-5 2.9531,0.45704 3.914,1.37109 0.961,0.91408 1.4414,2.04689 1.4414,3.39844 0,0.68751 -0.1406,1.36329 -0.4218,2.02734 -0.2813,0.66408 -0.7481,1.36329 -1.4004,2.09766 -0.6524,0.73438 -1.7364,1.74219 -3.252,3.02344 -1.2656,1.0625 -2.0781,1.78321 -2.4375,2.16211 -0.3594,0.37891 -0.6562,0.75977 -0.8906,1.14258 z"
           id="path3286"
           style="font-size:24.00000763px;text-align:center;line-height:100%;text-anchor:middle;marker:none;-inkscape-font-specification:Arial" />
        <path
           d="m 1511.0841,838.44617 c 0,-2.03124 0.209,-3.666 0.627,-4.9043 0.4179,-1.23826 1.039,-2.19334 1.8632,-2.86523 0.8243,-0.67186 1.8614,-1.0078 3.1114,-1.00781 0.9218,1e-5 1.7304,0.18556 2.4258,0.55664 0.6953,0.37111 1.2695,0.90626 1.7226,1.60547 0.4531,0.69923 0.8086,1.55079 1.0664,2.55468 0.2578,1.00392 0.3867,2.35744 0.3867,4.06055 0,2.01563 -0.207,3.64259 -0.6211,4.88086 -0.414,1.23829 -1.0332,2.19532 -1.8574,2.8711 -0.8242,0.67578 -1.8652,1.01367 -3.123,1.01367 -1.6563,0 -2.9571,-0.59375 -3.9024,-1.78125 -1.1328,-1.42969 -1.6992,-3.75781 -1.6992,-6.98438 z m 2.168,0 c 0,2.82032 0.3301,4.69727 0.9902,5.63086 0.6602,0.9336 1.4746,1.4004 2.4434,1.40039 0.9687,10e-6 1.7832,-0.46874 2.4433,-1.40625 0.6602,-0.93749 0.9903,-2.81249 0.9903,-5.625 0,-2.82811 -0.3301,-4.70702 -0.9903,-5.63672 -0.6601,-0.92967 -1.4824,-1.39451 -2.4668,-1.39453 -0.9687,2e-5 -1.7422,0.41017 -2.3203,1.23047 -0.7265,1.04689 -1.0898,2.98048 -1.0898,5.80078 z"
           id="path3288"
           style="font-size:24.00000763px;text-align:center;line-height:100%;text-anchor:middle;marker:none;-inkscape-font-specification:Arial" />
        <path
           d="m 1524.9474,832.69226 c 0,-0.89842 0.3183,-1.66404 0.9551,-2.29687 0.6367,-0.6328 1.4004,-0.9492 2.291,-0.94922 0.9062,2e-5 1.6758,0.31642 2.3086,0.94922 0.6328,0.63283 0.9492,1.39845 0.9492,2.29687 0,0.89845 -0.3184,1.66603 -0.9551,2.30274 -0.6367,0.63673 -1.4043,0.95509 -2.3027,0.95508 -0.8906,1e-5 -1.6543,-0.3164 -2.291,-0.94922 -0.6368,-0.6328 -0.9551,-1.40233 -0.9551,-2.3086 z m 1.2773,0 c 0,0.54689 0.1934,1.01369 0.5801,1.40039 0.3867,0.38674 0.8535,0.5801 1.4004,0.58008 0.5391,2e-5 1.002,-0.19334 1.3887,-0.58008 0.3867,-0.3867 0.58,-0.8535 0.5801,-1.40039 -10e-5,-0.54686 -0.1934,-1.01365 -0.5801,-1.40039 -0.3867,-0.3867 -0.8496,-0.58006 -1.3887,-0.58008 -0.5469,2e-5 -1.0137,0.19338 -1.4004,0.58008 -0.3867,0.38674 -0.5801,0.85353 -0.5801,1.40039 z"
           id="path3290"
           style="font-size:24.00000763px;text-align:center;line-height:100%;text-anchor:middle;marker:none;-inkscape-font-specification:Arial" />
      </g>
      <path
         d="M 1207.3461,999.73986 1499.6948,948.1909"
         id="path4247-8-5-8"
         style="fill:none;stroke:#000000;stroke-width:2;stroke-linecap:butt;stroke-linejoin:miter;stroke-miterlimit:4;stroke-opacity:1;stroke-dasharray:8, 8;stroke-dashoffset:0" />
      <g
         id="text4205-8-4-0-9-9-8-9-1-4"
         style="font-size:18.00000572px;font-style:normal;font-variant:normal;font-weight:normal;font-stretch:normal;text-indent:0;text-align:start;text-decoration:none;line-height:100%;letter-spacing:0px;word-spacing:0px;text-transform:none;direction:ltr;block-progression:tb;writing-mode:tb-rl;text-anchor:start;baseline-shift:baseline;color:#000000;fill:#000000;fill-opacity:1;fill-rule:nonzero;stroke:none;stroke-width:1;marker:none;visibility:visible;display:inline;overflow:visible;enable-background:accumulate;font-family:Arial;-inkscape-font-specification:Arial">
        <path
           d="m 1589.9004,921.90155 0.3047,1.86328 c -0.5938,0.125 -1.125,0.1875 -1.5938,0.1875 -0.7656,0 -1.3594,-0.12109 -1.7812,-0.36328 -0.4219,-0.24219 -0.7188,-0.56055 -0.8907,-0.95508 -0.1718,-0.39453 -0.2578,-1.22461 -0.2578,-2.49023 l 0,-7.16016 -1.5468,0 0,-1.64063 1.5468,0 0,-3.08203 2.0977,-1.26563 0,4.34766 2.1211,0 0,1.64063 -2.1211,0 0,7.27734 c 0,0.60157 0.037,0.98829 0.1113,1.16016 0.074,0.17188 0.1953,0.3086 0.3633,0.41016 0.168,0.10156 0.4082,0.15234 0.7207,0.15234 0.2344,0 0.543,-0.0273 0.9258,-0.082 z"
           id="path3293"
           style="font-size:24.00000763px;text-align:center;line-height:100%;text-anchor:middle;marker:none;-inkscape-font-specification:Arial" />
        <path
           d="m 1600.4707,919.78046 2.1797,0.26953 c -0.3438,1.27344 -0.9805,2.26172 -1.9102,2.96484 -0.9297,0.70313 -2.1172,1.05469 -3.5625,1.05469 -1.8203,0 -3.2637,-0.56055 -4.3301,-1.68164 -1.0664,-1.12109 -1.5996,-2.69336 -1.5996,-4.7168 0,-2.09374 0.5391,-3.71874 1.6172,-4.875 1.0781,-1.15624 2.4766,-1.73436 4.1953,-1.73438 1.6641,2e-5 3.0235,0.56642 4.0782,1.69922 1.0546,1.13282 1.582,2.72657 1.582,4.78125 0,0.12501 0,0.31251 -0.012,0.5625 l -9.2813,0 c 0.078,1.3672 0.4649,2.41407 1.1602,3.14063 0.6953,0.72656 1.5625,1.08985 2.6015,1.08984 0.7735,10e-6 1.4336,-0.20312 1.9805,-0.60937 0.5469,-0.40625 0.9805,-1.05469 1.3008,-1.94531 z m -6.9258,-3.41016 6.9492,0 c -0.094,-1.04687 -0.3594,-1.83202 -0.7968,-2.35547 -0.6719,-0.81249 -1.543,-1.21874 -2.6133,-1.21875 -0.9688,1e-5 -1.7832,0.32423 -2.4434,0.97265 -0.6601,0.64845 -1.0254,1.51564 -1.0957,2.60157 z"
           id="path3295"
           style="font-size:24.00000763px;text-align:center;line-height:100%;text-anchor:middle;marker:none;-inkscape-font-specification:Arial" />
        <path
           d="m 1605.3105,923.78827 0,-12.44532 1.8868,0 0,1.7461 c 0.3906,-0.60937 0.9101,-1.0996 1.5586,-1.47071 0.6484,-0.37108 1.3867,-0.55662 2.2148,-0.55664 0.9219,2e-5 1.6777,0.19142 2.2676,0.57422 0.5898,0.38283 1.0058,0.91798 1.248,1.60547 0.9844,-1.45311 2.2656,-2.17967 3.8438,-2.17969 1.2343,2e-5 2.1836,0.34181 2.8476,1.02539 0.6641,0.68361 0.9961,1.73634 0.9961,3.15821 l 0,8.54297 -2.0976,0 0,-7.83985 c 0,-0.84374 -0.068,-1.45116 -0.2051,-1.82226 -0.1367,-0.37109 -0.3848,-0.66992 -0.7442,-0.89649 -0.3593,-0.22655 -0.7812,-0.33983 -1.2656,-0.33984 -0.875,1e-5 -1.6016,0.29102 -2.1797,0.87305 -0.5781,0.58204 -0.8672,1.51368 -0.8672,2.79492 l 0,7.23047 -2.1093,0 0,-8.08594 c 0,-0.93749 -0.1719,-1.64062 -0.5157,-2.10938 -0.3437,-0.46874 -0.9062,-0.70311 -1.6875,-0.70312 -0.5937,1e-5 -1.1425,0.15626 -1.6464,0.46875 -0.5039,0.31251 -0.8692,0.76954 -1.0957,1.37109 -0.2266,0.60157 -0.3399,1.46876 -0.3399,2.60157 l 0,6.45703 z"
           id="path3297"
           style="font-size:24.00000763px;text-align:center;line-height:100%;text-anchor:middle;marker:none;-inkscape-font-specification:Arial" />
        <path
           d="m 1625.3262,928.5578 0,-17.21485 1.9218,0 0,1.61719 c 0.4532,-0.6328 0.9649,-1.10741 1.5352,-1.42383 0.5703,-0.31639 1.2617,-0.47459 2.0742,-0.47461 1.0625,2e-5 2,0.27345 2.8125,0.82032 0.8125,0.54688 1.4258,1.31837 1.8399,2.31445 0.414,0.9961 0.621,2.0879 0.6211,3.27539 -1e-4,1.27344 -0.2286,2.41993 -0.6856,3.43946 -0.457,1.01953 -1.1211,1.80078 -1.9922,2.34375 -0.8711,0.54296 -1.7871,0.81445 -2.748,0.81445 -0.7032,0 -1.334,-0.14844 -1.8926,-0.44531 -0.5586,-0.29688 -1.0176,-0.67188 -1.377,-1.125 l 0,6.05859 z m 1.9101,-10.92188 c 0,1.60157 0.3242,2.78516 0.9727,3.55079 0.6484,0.76562 1.4336,1.14844 2.3555,1.14843 0.9374,10e-6 1.7402,-0.39648 2.4082,-1.18945 0.6679,-0.79297 1.0019,-2.02148 1.0019,-3.68555 0,-1.58593 -0.3262,-2.77343 -0.9785,-3.5625 -0.6524,-0.78905 -1.4317,-1.18358 -2.3379,-1.18359 -0.8984,10e-6 -1.6934,0.41993 -2.3848,1.25976 -0.6914,0.83986 -1.0371,2.06056 -1.0371,3.66211 z"
           id="path3299"
           style="font-size:24.00000763px;text-align:center;line-height:100%;text-anchor:middle;marker:none;-inkscape-font-specification:Arial" />
        <path
           d="m 1637.9004,917.56561 c 0,-2.30468 0.6406,-4.01171 1.9219,-5.12109 1.0703,-0.92187 2.375,-1.3828 3.914,-1.38282 1.711,2e-5 3.1094,0.56056 4.1953,1.68164 1.086,1.12111 1.6289,2.66993 1.629,4.64649 -10e-5,1.60157 -0.2403,2.86133 -0.7208,3.7793 -0.4804,0.91797 -1.1797,1.63086 -2.0976,2.13867 -0.918,0.50781 -1.9199,0.76172 -3.0059,0.76172 -1.7422,0 -3.1504,-0.55859 -4.2246,-1.67578 -1.0742,-1.11719 -1.6113,-2.72656 -1.6113,-4.82813 z m 2.168,0 c 0,1.59376 0.3476,2.78711 1.0429,3.58008 0.6953,0.79297 1.5703,1.18946 2.625,1.18945 1.0469,10e-6 1.918,-0.39843 2.6133,-1.19531 0.6953,-0.79687 1.043,-2.01171 1.043,-3.64453 0,-1.53906 -0.3496,-2.70507 -1.0488,-3.49805 -0.6993,-0.79296 -1.5684,-1.18944 -2.6075,-1.18945 -1.0547,10e-6 -1.9297,0.39454 -2.625,1.18359 -0.6953,0.78907 -1.0429,1.98048 -1.0429,3.57422 z"
           id="path3301"
           style="font-size:24.00000763px;text-align:center;line-height:100%;text-anchor:middle;marker:none;-inkscape-font-specification:Arial" />
        <path
           d="m 1652.0215,923.78827 0,-12.44532 1.8984,0 0,1.88672 c 0.4844,-0.8828 0.9317,-1.46483 1.3418,-1.74609 0.4102,-0.28124 0.8613,-0.42186 1.3535,-0.42188 0.711,2e-5 1.4336,0.22658 2.168,0.67969 l -0.7266,1.95703 c -0.5156,-0.30468 -1.0312,-0.45702 -1.5468,-0.45703 -0.461,10e-6 -0.875,0.13868 -1.2422,0.41602 -0.3672,0.27735 -0.6289,0.66212 -0.7852,1.15429 -0.2344,0.75001 -0.3515,1.57032 -0.3515,2.46094 l 0,6.51563 z"
           id="path3303"
           style="font-size:24.00000763px;text-align:center;line-height:100%;text-anchor:middle;marker:none;-inkscape-font-specification:Arial" />
        <path
           d="m 1668.1817,922.25311 c -0.7813,0.66407 -1.5333,1.13282 -2.2559,1.40625 -0.7227,0.27344 -1.4981,0.41016 -2.3262,0.41016 -1.3672,0 -2.418,-0.33399 -3.1523,-1.00195 -0.7344,-0.66797 -1.1016,-1.52149 -1.1016,-2.56055 0,-0.60937 0.1387,-1.16601 0.416,-1.66992 0.2774,-0.50391 0.6407,-0.9082 1.0899,-1.2129 0.4492,-0.30468 0.955,-0.53515 1.5175,-0.6914 0.4141,-0.10937 1.0391,-0.21484 1.8751,-0.31641 1.7031,-0.20312 2.957,-0.4453 3.7617,-0.72656 0.01,-0.28906 0.012,-0.47265 0.012,-0.55078 0,-0.85937 -0.1992,-1.46484 -0.5977,-1.81641 -0.539,-0.47655 -1.3398,-0.71483 -2.4023,-0.71484 -0.9922,10e-6 -1.7246,0.17384 -2.1973,0.52148 -0.4726,0.34767 -0.8222,0.9629 -1.0488,1.84571 l -2.0625,-0.28126 c 0.1875,-0.8828 0.4961,-1.59569 0.9258,-2.13867 0.4297,-0.54295 1.0508,-0.96092 1.8633,-1.2539 0.8125,-0.29296 1.7539,-0.43944 2.8242,-0.43946 1.0625,2e-5 1.9257,0.12502 2.5898,0.375 0.6641,0.25001 1.1524,0.56447 1.4649,0.94336 0.3125,0.37892 0.5312,0.85743 0.6562,1.43555 0.07,0.35938 0.1055,1.00782 0.1055,1.94531 l 0,2.8125 c 0,1.96095 0.045,3.20118 0.1347,3.72071 0.09,0.51953 0.2676,1.01758 0.5333,1.49414 l -2.2032,0 c -0.2187,-0.4375 -0.3594,-0.94922 -0.4218,-1.53516 z m -0.1758,-4.71094 c -0.7657,0.31251 -1.9141,0.57813 -3.4453,0.79688 -0.8672,0.125 -1.4805,0.26563 -1.8399,0.42187 -0.3594,0.15626 -0.6367,0.38477 -0.832,0.68555 -0.1953,0.30079 -0.293,0.63477 -0.293,1.00195 0,0.56251 0.2129,1.03126 0.6387,1.40625 0.4258,0.37501 1.0488,0.56251 1.8691,0.5625 0.8125,10e-6 1.5352,-0.17773 2.168,-0.5332 0.6328,-0.35547 1.0976,-0.84179 1.3945,-1.45898 0.2266,-0.47656 0.3399,-1.17969 0.3399,-2.10938 z"
           id="path3305"
           style="font-size:24.00000763px;text-align:center;line-height:100%;text-anchor:middle;marker:none;-inkscape-font-specification:Arial" />
        <path
           d="m 1673.3731,923.78827 0,-17.17969 2.1093,0 0,17.17969 z"
           id="path3307"
           style="font-size:24.00000763px;text-align:center;line-height:100%;text-anchor:middle;marker:none;-inkscape-font-specification:Arial" />
        <path
           d="m 1594.7754,943.22968 2.0742,0.26953 c -0.2266,1.42969 -0.8067,2.54883 -1.7402,3.35743 -0.9336,0.80859 -2.0801,1.21289 -3.4395,1.21289 -1.7031,0 -3.0723,-0.55664 -4.1074,-1.66993 -1.0352,-1.11327 -1.5527,-2.70898 -1.5527,-4.78711 0,-1.34374 0.2226,-2.51952 0.6679,-3.52734 0.4453,-1.0078 1.1231,-1.76366 2.0332,-2.26758 0.9102,-0.50389 1.9004,-0.75585 2.9707,-0.75586 1.3516,1e-5 2.4571,0.34181 3.3164,1.02539 0.8594,0.68361 1.4102,1.65431 1.6524,2.91211 l -2.0508,0.31641 c -0.1953,-0.83593 -0.541,-1.46484 -1.0371,-1.88672 -0.4961,-0.42187 -1.0957,-0.6328 -1.7988,-0.63281 -1.0625,10e-6 -1.9258,0.38087 -2.5899,1.14257 -0.6641,0.76173 -0.9961,1.96681 -0.9961,3.61524 0,1.67188 0.3203,2.88672 0.961,3.64453 0.6406,0.75782 1.4765,1.13672 2.5078,1.13672 0.8281,0 1.5195,-0.2539 2.0742,-0.76172 0.5547,-0.50781 0.9062,-1.28906 1.0547,-2.34375 z"
           id="path3309"
           style="font-size:24.00000763px;text-align:center;line-height:100%;text-anchor:middle;marker:none;-inkscape-font-specification:Arial" />
        <path
           d="m 1598.6308,947.78828 0,-12.44532 1.8985,0 0,1.88672 c 0.4844,-0.8828 0.9316,-1.46483 1.3418,-1.74609 0.4101,-0.28124 0.8613,-0.42187 1.3535,-0.42188 0.7109,1e-5 1.4336,0.22658 2.168,0.67969 l -0.7266,1.95703 c -0.5156,-0.30468 -1.0312,-0.45702 -1.5469,-0.45703 -0.4609,10e-6 -0.875,0.13868 -1.2422,0.41601 -0.3671,0.27736 -0.6289,0.66212 -0.7851,1.1543 -0.2344,0.75001 -0.3516,1.57032 -0.3516,2.46094 l 0,6.51563 z"
           id="path3311"
           style="font-size:24.00000763px;text-align:center;line-height:100%;text-anchor:middle;marker:none;-inkscape-font-specification:Arial" />
        <path
           d="m 1615.1894,943.78046 2.1797,0.26953 c -0.3437,1.27344 -0.9804,2.26173 -1.9101,2.96485 -0.9297,0.70312 -2.1172,1.05469 -3.5625,1.05469 -1.8203,0 -3.2637,-0.56055 -4.3301,-1.68164 -1.0664,-1.1211 -1.5996,-2.69336 -1.5996,-4.7168 0,-2.09375 0.5391,-3.71874 1.6172,-4.875 1.0781,-1.15624 2.4765,-1.73437 4.1953,-1.73438 1.664,1e-5 3.0234,0.56642 4.0781,1.69922 1.0547,1.13282 1.582,2.72657 1.5821,4.78125 -10e-5,0.12501 0,0.31251 -0.012,0.5625 l -9.2812,0 c 0.078,1.36719 0.4648,2.41407 1.1601,3.14063 0.6953,0.72656 1.5625,1.08984 2.6016,1.08984 0.7734,0 1.4336,-0.20312 1.9805,-0.60937 0.5468,-0.40625 0.9804,-1.05469 1.3007,-1.94532 z m -6.9257,-3.41015 6.9492,0 c -0.094,-1.04687 -0.3594,-1.83203 -0.7969,-2.35547 -0.6719,-0.81249 -1.543,-1.21874 -2.6133,-1.21875 -0.9687,10e-6 -1.7832,0.32423 -2.4433,0.97265 -0.6602,0.64845 -1.0254,1.51564 -1.0957,2.60157 z"
           id="path3313"
           style="font-size:24.00000763px;text-align:center;line-height:100%;text-anchor:middle;marker:none;-inkscape-font-specification:Arial" />
        <path
           d="m 1619.1855,944.07343 2.086,-0.32812 c 0.1172,0.83594 0.4433,1.47656 0.9785,1.92187 0.5352,0.44532 1.2832,0.66797 2.2441,0.66797 0.9688,0 1.6875,-0.19726 2.1563,-0.5918 0.4687,-0.39452 0.7031,-0.85742 0.7031,-1.38867 0,-0.47656 -0.207,-0.85156 -0.6211,-1.125 -0.289,-0.18749 -1.0078,-0.42577 -2.1562,-0.71484 -1.5469,-0.39062 -2.6192,-0.72851 -3.2168,-1.01367 -0.5977,-0.28515 -1.0508,-0.67969 -1.3594,-1.1836 -0.3086,-0.5039 -0.4629,-1.06054 -0.4629,-1.66992 0,-0.55468 0.127,-1.06835 0.3809,-1.54102 0.2539,-0.47264 0.5996,-0.86522 1.0371,-1.17773 0.3281,-0.24218 0.7754,-0.44726 1.3418,-0.61524 0.5664,-0.16795 1.1738,-0.25194 1.8222,-0.25195 0.9766,1e-5 1.834,0.14064 2.5723,0.42188 0.7383,0.28126 1.2832,0.66212 1.6348,1.14257 0.3515,0.48048 0.5937,1.12306 0.7265,1.92774 l -2.0625,0.28125 c -0.094,-0.64062 -0.3652,-1.14062 -0.8144,-1.5 -0.4492,-0.35937 -1.084,-0.53905 -1.9043,-0.53906 -0.9688,10e-6 -1.6602,0.16016 -2.0742,0.48046 -0.4141,0.32033 -0.6211,0.69533 -0.6211,1.125 0,0.27345 0.086,0.51955 0.2578,0.73829 0.1719,0.22657 0.4414,0.41407 0.8086,0.5625 0.2109,0.0781 0.832,0.25782 1.8633,0.53906 1.4921,0.39844 2.5332,0.72462 3.123,0.97852 0.5898,0.25391 1.0527,0.62305 1.3887,1.10742 0.3359,0.48438 0.5039,1.08594 0.5039,1.80469 0,0.70312 -0.2051,1.36523 -0.6152,1.98632 -0.4102,0.6211 -1.002,1.10157 -1.7754,1.44141 -0.7735,0.33984 -1.6485,0.50977 -2.625,0.50977 -1.6172,0 -2.8497,-0.33594 -3.6973,-1.00782 -0.8477,-0.67187 -1.3887,-1.66796 -1.6231,-2.98828 z"
           id="path3315"
           style="font-size:24.00000763px;text-align:center;line-height:100%;text-anchor:middle;marker:none;-inkscape-font-specification:Arial" />
        <path
           d="m 1640.1504,943.22968 2.0742,0.26953 c -0.2266,1.42969 -0.8066,2.54883 -1.7402,3.35743 -0.9336,0.80859 -2.0801,1.21289 -3.4395,1.21289 -1.7031,0 -3.0722,-0.55664 -4.1074,-1.66993 -1.0352,-1.11327 -1.5527,-2.70898 -1.5527,-4.78711 0,-1.34374 0.2226,-2.51952 0.6679,-3.52734 0.4453,-1.0078 1.1231,-1.76366 2.0332,-2.26758 0.9102,-0.50389 1.9004,-0.75585 2.9707,-0.75586 1.3516,1e-5 2.4571,0.34181 3.3165,1.02539 0.8593,0.68361 1.4101,1.65431 1.6523,2.91211 l -2.0508,0.31641 c -0.1953,-0.83593 -0.541,-1.46484 -1.0371,-1.88672 -0.4961,-0.42187 -1.0957,-0.6328 -1.7988,-0.63281 -1.0625,10e-6 -1.9258,0.38087 -2.5899,1.14257 -0.664,0.76173 -0.9961,1.96681 -0.9961,3.61524 0,1.67188 0.3203,2.88672 0.961,3.64453 0.6406,0.75782 1.4765,1.13672 2.5078,1.13672 0.8281,0 1.5195,-0.2539 2.0742,-0.76172 0.5547,-0.50781 0.9062,-1.28906 1.0547,-2.34375 z"
           id="path3317"
           style="font-size:24.00000763px;text-align:center;line-height:100%;text-anchor:middle;marker:none;-inkscape-font-specification:Arial" />
        <path
           d="m 1652.5488,943.78046 2.1797,0.26953 c -0.3437,1.27344 -0.9805,2.26173 -1.9101,2.96485 -0.9297,0.70312 -2.1172,1.05469 -3.5625,1.05469 -1.8204,0 -3.2637,-0.56055 -4.3301,-1.68164 -1.0664,-1.1211 -1.5996,-2.69336 -1.5996,-4.7168 0,-2.09375 0.539,-3.71874 1.6172,-4.875 1.0781,-1.15624 2.4765,-1.73437 4.1953,-1.73438 1.664,1e-5 3.0234,0.56642 4.0781,1.69922 1.0547,1.13282 1.582,2.72657 1.582,4.78125 0,0.12501 0,0.31251 -0.012,0.5625 l -9.2812,0 c 0.078,1.36719 0.4648,2.41407 1.1601,3.14063 0.6953,0.72656 1.5625,1.08984 2.6016,1.08984 0.7734,0 1.4336,-0.20312 1.9805,-0.60937 0.5468,-0.40625 0.9804,-1.05469 1.3007,-1.94532 z m -6.9257,-3.41015 6.9492,0 c -0.094,-1.04687 -0.3594,-1.83203 -0.7969,-2.35547 -0.6719,-0.81249 -1.543,-1.21874 -2.6133,-1.21875 -0.9687,10e-6 -1.7832,0.32423 -2.4433,0.97265 -0.6602,0.64845 -1.0254,1.51564 -1.0957,2.60157 z"
           id="path3319"
           style="font-size:24.00000763px;text-align:center;line-height:100%;text-anchor:middle;marker:none;-inkscape-font-specification:Arial" />
        <path
           d="m 1657.3887,947.78828 0,-12.44532 1.8984,0 0,1.76953 c 0.9141,-1.36717 2.2344,-2.05077 3.961,-2.05078 0.7499,1e-5 1.4394,0.13478 2.0683,0.4043 0.6289,0.26954 1.0996,0.62306 1.4121,1.06054 0.3125,0.43752 0.5313,0.95705 0.6563,1.5586 0.078,0.39063 0.1172,1.07423 0.1172,2.05078 l 0,7.65235 -2.1094,0 0,-7.57032 c 0,-0.85937 -0.082,-1.50194 -0.2461,-1.92773 -0.1641,-0.42577 -0.4551,-0.76562 -0.8731,-1.01953 -0.4179,-0.2539 -0.9082,-0.38085 -1.4707,-0.38086 -0.8984,10e-6 -1.6738,0.28516 -2.3261,0.85546 -0.6524,0.57033 -0.9785,1.65236 -0.9785,3.2461 l 0,6.79688 z"
           id="path3321"
           style="font-size:24.00000763px;text-align:center;line-height:100%;text-anchor:middle;marker:none;-inkscape-font-specification:Arial" />
        <path
           d="m 1675.3535,945.90156 0.3047,1.86328 c -0.5937,0.125 -1.125,0.1875 -1.5937,0.1875 -0.7657,0 -1.3594,-0.12109 -1.7813,-0.36328 -0.4219,-0.24219 -0.7187,-0.56055 -0.8906,-0.95508 -0.1719,-0.39453 -0.2578,-1.22461 -0.2578,-2.49024 l 0,-7.16015 -1.5469,0 0,-1.64063 1.5469,0 0,-3.08203 2.0976,-1.26563 0,4.34766 2.1211,0 0,1.64063 -2.1211,0 0,7.27734 c 0,0.60157 0.037,0.98829 0.1114,1.16016 0.074,0.17188 0.1953,0.30859 0.3632,0.41015 0.168,0.10157 0.4082,0.15235 0.7207,0.15235 0.2344,0 0.543,-0.0273 0.9258,-0.082 z"
           id="path3323"
           style="font-size:24.00000763px;text-align:center;line-height:100%;text-anchor:middle;marker:none;-inkscape-font-specification:Arial" />
      </g>
      <g
         id="text4205-8-4-0-9-9-8-9-1"
         style="font-size:18.00000572px;font-style:normal;font-variant:normal;font-weight:normal;font-stretch:normal;text-indent:0;text-align:start;text-decoration:none;line-height:100%;letter-spacing:0px;word-spacing:0px;text-transform:none;direction:ltr;block-progression:tb;writing-mode:tb-rl;text-anchor:start;baseline-shift:baseline;color:#000000;fill:#000000;fill-opacity:1;fill-rule:nonzero;stroke:none;stroke-width:1;marker:none;visibility:visible;display:inline;overflow:visible;enable-background:accumulate;font-family:Arial;-inkscape-font-specification:Arial">
        <path
           d="m 1329.7656,921.90155 0.3047,1.86328 c -0.5938,0.125 -1.125,0.1875 -1.5938,0.1875 -0.7656,0 -1.3593,-0.12109 -1.7812,-0.36328 -0.4219,-0.24219 -0.7188,-0.56055 -0.8906,-0.95508 -0.1719,-0.39453 -0.2578,-1.22461 -0.2578,-2.49023 l 0,-7.16016 -1.5469,0 0,-1.64063 1.5469,0 0,-3.08203 2.0976,-1.26563 0,4.34766 2.1211,0 0,1.64063 -2.1211,0 0,7.27734 c 0,0.60157 0.037,0.98829 0.1113,1.16016 0.074,0.17188 0.1954,0.3086 0.3633,0.41016 0.168,0.10156 0.4082,0.15234 0.7207,0.15234 0.2344,0 0.543,-0.0273 0.9258,-0.082 z"
           id="path3326"
           style="font-size:24.00000763px;text-align:center;line-height:100%;text-anchor:middle;marker:none;-inkscape-font-specification:Arial" />
        <path
           d="m 1340.3359,919.78046 2.1797,0.26953 c -0.3437,1.27344 -0.9805,2.26172 -1.9101,2.96484 -0.9297,0.70313 -2.1172,1.05469 -3.5625,1.05469 -1.8204,0 -3.2637,-0.56055 -4.3301,-1.68164 -1.0664,-1.12109 -1.5996,-2.69336 -1.5996,-4.7168 0,-2.09374 0.539,-3.71874 1.6172,-4.875 1.0781,-1.15624 2.4765,-1.73436 4.1953,-1.73438 1.664,2e-5 3.0234,0.56642 4.0781,1.69922 1.0547,1.13282 1.582,2.72657 1.582,4.78125 0,0.12501 0,0.31251 -0.012,0.5625 l -9.2812,0 c 0.078,1.3672 0.4648,2.41407 1.1601,3.14063 0.6953,0.72656 1.5625,1.08985 2.6016,1.08984 0.7734,10e-6 1.4336,-0.20312 1.9804,-0.60937 0.5469,-0.40625 0.9805,-1.05469 1.3008,-1.94531 z m -6.9258,-3.41016 6.9493,0 c -0.094,-1.04687 -0.3594,-1.83202 -0.7969,-2.35547 -0.6719,-0.81249 -1.543,-1.21874 -2.6133,-1.21875 -0.9687,1e-5 -1.7832,0.32423 -2.4434,0.97265 -0.6601,0.64845 -1.0253,1.51564 -1.0957,2.60157 z"
           id="path3328"
           style="font-size:24.00000763px;text-align:center;line-height:100%;text-anchor:middle;marker:none;-inkscape-font-specification:Arial" />
        <path
           d="m 1345.1758,923.78827 0,-12.44532 1.8867,0 0,1.7461 c 0.3906,-0.60937 0.9101,-1.0996 1.5586,-1.47071 0.6484,-0.37108 1.3867,-0.55662 2.2148,-0.55664 0.9219,2e-5 1.6778,0.19142 2.2676,0.57422 0.5898,0.38283 1.0059,0.91798 1.2481,1.60547 0.9843,-1.45311 2.2656,-2.17967 3.8437,-2.17969 1.2344,2e-5 2.1836,0.34181 2.8477,1.02539 0.664,0.68361 0.996,1.73634 0.9961,3.15821 l 0,8.54297 -2.0977,0 0,-7.83985 c 0,-0.84374 -0.068,-1.45116 -0.2051,-1.82226 -0.1367,-0.37109 -0.3848,-0.66992 -0.7441,-0.89649 -0.3594,-0.22655 -0.7813,-0.33983 -1.2656,-0.33984 -0.8751,1e-5 -1.6016,0.29102 -2.1797,0.87305 -0.5782,0.58204 -0.8672,1.51368 -0.8672,2.79492 l 0,7.23047 -2.1094,0 0,-8.08594 c 0,-0.93749 -0.1719,-1.64062 -0.5156,-2.10938 -0.3438,-0.46874 -0.9063,-0.70311 -1.6875,-0.70312 -0.5938,1e-5 -1.1426,0.15626 -1.6465,0.46875 -0.5039,0.31251 -0.8691,0.76954 -1.0957,1.37109 -0.2266,0.60157 -0.3399,1.46876 -0.3399,2.60157 l 0,6.45703 z"
           id="path3330"
           style="font-size:24.00000763px;text-align:center;line-height:100%;text-anchor:middle;marker:none;-inkscape-font-specification:Arial" />
        <path
           d="m 1365.1914,928.5578 0,-17.21485 1.9219,0 0,1.61719 c 0.4531,-0.6328 0.9648,-1.10741 1.5351,-1.42383 0.5703,-0.31639 1.2617,-0.47459 2.0743,-0.47461 1.0624,2e-5 1.9999,0.27345 2.8125,0.82032 0.8124,0.54688 1.4257,1.31837 1.8398,2.31445 0.4141,0.9961 0.6211,2.0879 0.6211,3.27539 0,1.27344 -0.2285,2.41993 -0.6856,3.43946 -0.457,1.01953 -1.1211,1.80078 -1.9921,2.34375 -0.8711,0.54296 -1.7872,0.81445 -2.7481,0.81445 -0.7031,0 -1.334,-0.14844 -1.8926,-0.44531 -0.5586,-0.29688 -1.0175,-0.67188 -1.3769,-1.125 l 0,6.05859 z m 1.9102,-10.92188 c 0,1.60157 0.3242,2.78516 0.9726,3.55079 0.6484,0.76562 1.4336,1.14844 2.3555,1.14843 0.9375,10e-6 1.7402,-0.39648 2.4082,-1.18945 0.6679,-0.79297 1.0019,-2.02148 1.0019,-3.68555 0,-1.58593 -0.3261,-2.77343 -0.9785,-3.5625 -0.6523,-0.78905 -1.4316,-1.18358 -2.3379,-1.18359 -0.8984,10e-6 -1.6933,0.41993 -2.3847,1.25976 -0.6914,0.83986 -1.0371,2.06056 -1.0371,3.66211 z"
           id="path3332"
           style="font-size:24.00000763px;text-align:center;line-height:100%;text-anchor:middle;marker:none;-inkscape-font-specification:Arial" />
        <path
           d="m 1377.7656,917.56561 c 0,-2.30468 0.6406,-4.01171 1.9219,-5.12109 1.0703,-0.92187 2.375,-1.3828 3.9141,-1.38282 1.7109,2e-5 3.1093,0.56056 4.1953,1.68164 1.0859,1.12111 1.6289,2.66993 1.6289,4.64649 0,1.60157 -0.2403,2.86133 -0.7207,3.7793 -0.4805,0.91797 -1.1797,1.63086 -2.0977,2.13867 -0.918,0.50781 -1.9199,0.76172 -3.0058,0.76172 -1.7422,0 -3.1504,-0.55859 -4.2246,-1.67578 -1.0743,-1.11719 -1.6114,-2.72656 -1.6114,-4.82813 z m 2.168,0 c 0,1.59376 0.3476,2.78711 1.043,3.58008 0.6953,0.79297 1.5703,1.18946 2.625,1.18945 1.0468,10e-6 1.9179,-0.39843 2.6132,-1.19531 0.6953,-0.79687 1.043,-2.01171 1.043,-3.64453 0,-1.53906 -0.3496,-2.70507 -1.0488,-3.49805 -0.6992,-0.79296 -1.5684,-1.18944 -2.6074,-1.18945 -1.0547,10e-6 -1.9297,0.39454 -2.625,1.18359 -0.6954,0.78907 -1.043,1.98048 -1.043,3.57422 z"
           id="path3334"
           style="font-size:24.00000763px;text-align:center;line-height:100%;text-anchor:middle;marker:none;-inkscape-font-specification:Arial" />
        <path
           d="m 1391.8867,923.78827 0,-12.44532 1.8985,0 0,1.88672 c 0.4843,-0.8828 0.9316,-1.46483 1.3418,-1.74609 0.4101,-0.28124 0.8613,-0.42186 1.3535,-0.42188 0.7109,2e-5 1.4336,0.22658 2.1679,0.67969 l -0.7265,1.95703 c -0.5157,-0.30468 -1.0313,-0.45702 -1.5469,-0.45703 -0.4609,10e-6 -0.875,0.13868 -1.2422,0.41602 -0.3672,0.27735 -0.6289,0.66212 -0.7851,1.15429 -0.2344,0.75001 -0.3516,1.57032 -0.3516,2.46094 l 0,6.51563 z"
           id="path3336"
           style="font-size:24.00000763px;text-align:center;line-height:100%;text-anchor:middle;marker:none;-inkscape-font-specification:Arial" />
        <path
           d="m 1408.0469,922.25311 c -0.7813,0.66407 -1.5332,1.13282 -2.2559,1.40625 -0.7226,0.27344 -1.498,0.41016 -2.3261,0.41016 -1.3672,0 -2.418,-0.33399 -3.1524,-1.00195 -0.7344,-0.66797 -1.1016,-1.52149 -1.1016,-2.56055 0,-0.60937 0.1387,-1.16601 0.4161,-1.66992 0.2773,-0.50391 0.6406,-0.9082 1.0898,-1.2129 0.4492,-0.30468 0.9551,-0.53515 1.5176,-0.6914 0.414,-0.10937 1.039,-0.21484 1.875,-0.31641 1.7031,-0.20312 2.957,-0.4453 3.7617,-0.72656 0.01,-0.28906 0.012,-0.47265 0.012,-0.55078 0,-0.85937 -0.1992,-1.46484 -0.5976,-1.81641 -0.5391,-0.47655 -1.3399,-0.71483 -2.4024,-0.71484 -0.9922,10e-6 -1.7246,0.17384 -2.1972,0.52148 -0.4727,0.34767 -0.8223,0.9629 -1.0489,1.84571 l -2.0625,-0.28126 c 0.1875,-0.8828 0.4961,-1.59569 0.9258,-2.13867 0.4297,-0.54295 1.0508,-0.96092 1.8633,-1.2539 0.8125,-0.29296 1.7539,-0.43944 2.8242,-0.43946 1.0625,2e-5 1.9258,0.12502 2.5899,0.375 0.664,0.25001 1.1523,0.56447 1.4648,0.94336 0.3125,0.37892 0.5312,0.85743 0.6562,1.43555 0.07,0.35938 0.1055,1.00782 0.1055,1.94531 l 0,2.8125 c 0,1.96095 0.045,3.20118 0.1348,3.72071 0.09,0.51953 0.2675,1.01758 0.5332,1.49414 l -2.2031,0 c -0.2188,-0.4375 -0.3594,-0.94922 -0.4219,-1.53516 z m -0.1758,-4.71094 c -0.7656,0.31251 -1.9141,0.57813 -3.4453,0.79688 -0.8672,0.125 -1.4805,0.26563 -1.8399,0.42187 -0.3593,0.15626 -0.6367,0.38477 -0.832,0.68555 -0.1953,0.30079 -0.293,0.63477 -0.293,1.00195 0,0.56251 0.2129,1.03126 0.6387,1.40625 0.4258,0.37501 1.0488,0.56251 1.8692,0.5625 0.8125,10e-6 1.5351,-0.17773 2.1679,-0.5332 0.6328,-0.35547 1.0977,-0.84179 1.3946,-1.45898 0.2265,-0.47656 0.3398,-1.17969 0.3398,-2.10938 z"
           id="path3338"
           style="font-size:24.00000763px;text-align:center;line-height:100%;text-anchor:middle;marker:none;-inkscape-font-specification:Arial" />
        <path
           d="m 1413.2383,923.78827 0,-17.17969 2.1094,0 0,17.17969 z"
           id="path3340"
           style="font-size:24.00000763px;text-align:center;line-height:100%;text-anchor:middle;marker:none;-inkscape-font-specification:Arial" />
        <path
           d="m 1334.6406,943.22968 2.0742,0.26953 c -0.2265,1.42969 -0.8066,2.54883 -1.7402,3.35743 -0.9336,0.80859 -2.0801,1.21289 -3.4395,1.21289 -1.7031,0 -3.0722,-0.55664 -4.1074,-1.66993 -1.0351,-1.11327 -1.5527,-2.70898 -1.5527,-4.78711 0,-1.34374 0.2226,-2.51952 0.668,-3.52734 0.4453,-1.0078 1.123,-1.76366 2.0332,-2.26758 0.9101,-0.50389 1.9003,-0.75585 2.9707,-0.75586 1.3515,1e-5 2.457,0.34181 3.3164,1.02539 0.8593,0.68361 1.4101,1.65431 1.6523,2.91211 l -2.0508,0.31641 c -0.1953,-0.83593 -0.541,-1.46484 -1.0371,-1.88672 -0.4961,-0.42187 -1.0957,-0.6328 -1.7988,-0.63281 -1.0625,10e-6 -1.9258,0.38087 -2.5899,1.14257 -0.664,0.76173 -0.996,1.96681 -0.996,3.61524 0,1.67188 0.3203,2.88672 0.9609,3.64453 0.6406,0.75782 1.4766,1.13672 2.5078,1.13672 0.8281,0 1.5195,-0.2539 2.0742,-0.76172 0.5547,-0.50781 0.9063,-1.28906 1.0547,-2.34375 z"
           id="path3342"
           style="font-size:24.00000763px;text-align:center;line-height:100%;text-anchor:middle;marker:none;-inkscape-font-specification:Arial" />
        <path
           d="m 1338.4961,947.78828 0,-12.44532 1.8984,0 0,1.88672 c 0.4844,-0.8828 0.9317,-1.46483 1.3418,-1.74609 0.4102,-0.28124 0.8613,-0.42187 1.3535,-0.42188 0.711,1e-5 1.4336,0.22658 2.168,0.67969 l -0.7266,1.95703 c -0.5156,-0.30468 -1.0312,-0.45702 -1.5468,-0.45703 -0.461,10e-6 -0.875,0.13868 -1.2422,0.41601 -0.3672,0.27736 -0.6289,0.66212 -0.7852,1.1543 -0.2344,0.75001 -0.3515,1.57032 -0.3515,2.46094 l 0,6.51563 z"
           id="path3344"
           style="font-size:24.00000763px;text-align:center;line-height:100%;text-anchor:middle;marker:none;-inkscape-font-specification:Arial" />
        <path
           d="m 1355.0547,943.78046 2.1797,0.26953 c -0.3438,1.27344 -0.9805,2.26173 -1.9102,2.96485 -0.9297,0.70312 -2.1172,1.05469 -3.5625,1.05469 -1.8203,0 -3.2637,-0.56055 -4.3301,-1.68164 -1.0664,-1.1211 -1.5996,-2.69336 -1.5996,-4.7168 0,-2.09375 0.5391,-3.71874 1.6172,-4.875 1.0781,-1.15624 2.4766,-1.73437 4.1953,-1.73438 1.6641,1e-5 3.0235,0.56642 4.0782,1.69922 1.0546,1.13282 1.582,2.72657 1.582,4.78125 0,0.12501 0,0.31251 -0.012,0.5625 l -9.2813,0 c 0.078,1.36719 0.4649,2.41407 1.1602,3.14063 0.6953,0.72656 1.5625,1.08984 2.6015,1.08984 0.7735,0 1.4336,-0.20312 1.9805,-0.60937 0.5469,-0.40625 0.9805,-1.05469 1.3008,-1.94532 z m -6.9258,-3.41015 6.9492,0 c -0.094,-1.04687 -0.3594,-1.83203 -0.7969,-2.35547 -0.6718,-0.81249 -1.5429,-1.21874 -2.6132,-1.21875 -0.9688,10e-6 -1.7832,0.32423 -2.4434,0.97265 -0.6602,0.64845 -1.0254,1.51564 -1.0957,2.60157 z"
           id="path3346"
           style="font-size:24.00000763px;text-align:center;line-height:100%;text-anchor:middle;marker:none;-inkscape-font-specification:Arial" />
        <path
           d="m 1359.0508,944.07343 2.0859,-0.32812 c 0.1172,0.83594 0.4434,1.47656 0.9785,1.92187 0.5352,0.44532 1.2832,0.66797 2.2442,0.66797 0.9687,0 1.6875,-0.19726 2.1562,-0.5918 0.4688,-0.39452 0.7031,-0.85742 0.7031,-1.38867 0,-0.47656 -0.207,-0.85156 -0.621,-1.125 -0.2891,-0.18749 -1.0079,-0.42577 -2.1563,-0.71484 -1.5469,-0.39062 -2.6191,-0.72851 -3.2168,-1.01367 -0.5977,-0.28515 -1.0508,-0.67969 -1.3594,-1.1836 -0.3086,-0.5039 -0.4629,-1.06054 -0.4629,-1.66992 0,-0.55468 0.127,-1.06835 0.3809,-1.54102 0.2539,-0.47264 0.5996,-0.86522 1.0371,-1.17773 0.3281,-0.24218 0.7754,-0.44726 1.3418,-0.61524 0.5664,-0.16795 1.1738,-0.25194 1.8223,-0.25195 0.9765,1e-5 1.834,0.14064 2.5722,0.42188 0.7383,0.28126 1.2832,0.66212 1.6348,1.14257 0.3516,0.48048 0.5937,1.12306 0.7266,1.92774 l -2.0625,0.28125 c -0.094,-0.64062 -0.3653,-1.14062 -0.8145,-1.5 -0.4492,-0.35937 -1.084,-0.53905 -1.9043,-0.53906 -0.9687,10e-6 -1.6601,0.16016 -2.0742,0.48046 -0.4141,0.32033 -0.6211,0.69533 -0.6211,1.125 0,0.27345 0.086,0.51955 0.2578,0.73829 0.1719,0.22657 0.4414,0.41407 0.8086,0.5625 0.2109,0.0781 0.832,0.25782 1.8633,0.53906 1.4922,0.39844 2.5332,0.72462 3.123,0.97852 0.5899,0.25391 1.0528,0.62305 1.3887,1.10742 0.3359,0.48438 0.5039,1.08594 0.5039,1.80469 0,0.70312 -0.2051,1.36523 -0.6152,1.98632 -0.4102,0.6211 -1.002,1.10157 -1.7754,1.44141 -0.7735,0.33984 -1.6485,0.50977 -2.625,0.50977 -1.6172,0 -2.8496,-0.33594 -3.6973,-1.00782 -0.8476,-0.67187 -1.3886,-1.66796 -1.623,-2.98828 z"
           id="path3348"
           style="font-size:24.00000763px;text-align:center;line-height:100%;text-anchor:middle;marker:none;-inkscape-font-specification:Arial" />
        <path
           d="m 1380.0156,943.22968 2.0742,0.26953 c -0.2265,1.42969 -0.8066,2.54883 -1.7402,3.35743 -0.9336,0.80859 -2.0801,1.21289 -3.4394,1.21289 -1.7032,0 -3.0723,-0.55664 -4.1075,-1.66993 -1.0351,-1.11327 -1.5527,-2.70898 -1.5527,-4.78711 0,-1.34374 0.2227,-2.51952 0.668,-3.52734 0.4453,-1.0078 1.123,-1.76366 2.0332,-2.26758 0.9101,-0.50389 1.9004,-0.75585 2.9707,-0.75586 1.3515,1e-5 2.457,0.34181 3.3164,1.02539 0.8593,0.68361 1.4101,1.65431 1.6523,2.91211 l -2.0508,0.31641 c -0.1953,-0.83593 -0.541,-1.46484 -1.0371,-1.88672 -0.4961,-0.42187 -1.0957,-0.6328 -1.7988,-0.63281 -1.0625,10e-6 -1.9258,0.38087 -2.5898,1.14257 -0.6641,0.76173 -0.9961,1.96681 -0.9961,3.61524 0,1.67188 0.3203,2.88672 0.9609,3.64453 0.6406,0.75782 1.4766,1.13672 2.5078,1.13672 0.8281,0 1.5195,-0.2539 2.0742,-0.76172 0.5547,-0.50781 0.9063,-1.28906 1.0547,-2.34375 z"
           id="path3350"
           style="font-size:24.00000763px;text-align:center;line-height:100%;text-anchor:middle;marker:none;-inkscape-font-specification:Arial" />
        <path
           d="m 1392.4141,943.78046 2.1797,0.26953 c -0.3438,1.27344 -0.9805,2.26173 -1.9102,2.96485 -0.9297,0.70312 -2.1172,1.05469 -3.5625,1.05469 -1.8203,0 -3.2637,-0.56055 -4.3301,-1.68164 -1.0664,-1.1211 -1.5996,-2.69336 -1.5996,-4.7168 0,-2.09375 0.5391,-3.71874 1.6172,-4.875 1.0781,-1.15624 2.4766,-1.73437 4.1953,-1.73438 1.6641,1e-5 3.0234,0.56642 4.0781,1.69922 1.0547,1.13282 1.5821,2.72657 1.5821,4.78125 0,0.12501 0,0.31251 -0.012,0.5625 l -9.2813,0 c 0.078,1.36719 0.4648,2.41407 1.1602,3.14063 0.6953,0.72656 1.5625,1.08984 2.6015,1.08984 0.7734,0 1.4336,-0.20312 1.9805,-0.60937 0.5469,-0.40625 0.9804,-1.05469 1.3008,-1.94532 z m -6.9258,-3.41015 6.9492,0 c -0.094,-1.04687 -0.3594,-1.83203 -0.7969,-2.35547 -0.6719,-0.81249 -1.5429,-1.21874 -2.6132,-1.21875 -0.9688,10e-6 -1.7833,0.32423 -2.4434,0.97265 -0.6602,0.64845 -1.0254,1.51564 -1.0957,2.60157 z"
           id="path3352"
           style="font-size:24.00000763px;text-align:center;line-height:100%;text-anchor:middle;marker:none;-inkscape-font-specification:Arial" />
        <path
           d="m 1397.2539,947.78828 0,-12.44532 1.8985,0 0,1.76953 c 0.914,-1.36717 2.2343,-2.05077 3.9609,-2.05078 0.75,1e-5 1.4394,0.13478 2.0684,0.4043 0.6288,0.26954 1.0996,0.62306 1.4121,1.06054 0.3125,0.43752 0.5312,0.95705 0.6562,1.5586 0.078,0.39063 0.1172,1.07423 0.1172,2.05078 l 0,7.65235 -2.1094,0 0,-7.57032 c 0,-0.85937 -0.082,-1.50194 -0.2461,-1.92773 -0.164,-0.42577 -0.4551,-0.76562 -0.873,-1.01953 -0.418,-0.2539 -0.9082,-0.38085 -1.4707,-0.38086 -0.8985,10e-6 -1.6739,0.28516 -2.3262,0.85546 -0.6523,0.57033 -0.9785,1.65236 -0.9785,3.2461 l 0,6.79688 z"
           id="path3354"
           style="font-size:24.00000763px;text-align:center;line-height:100%;text-anchor:middle;marker:none;-inkscape-font-specification:Arial" />
        <path
           d="m 1415.2188,945.90156 0.3046,1.86328 c -0.5937,0.125 -1.125,0.1875 -1.5937,0.1875 -0.7656,0 -1.3594,-0.12109 -1.7813,-0.36328 -0.4218,-0.24219 -0.7187,-0.56055 -0.8906,-0.95508 -0.1719,-0.39453 -0.2578,-1.22461 -0.2578,-2.49024 l 0,-7.16015 -1.5469,0 0,-1.64063 1.5469,0 0,-3.08203 2.0977,-1.26563 0,4.34766 2.1211,0 0,1.64063 -2.1211,0 0,7.27734 c 0,0.60157 0.037,0.98829 0.1113,1.16016 0.074,0.17188 0.1953,0.30859 0.3633,0.41015 0.1679,0.10157 0.4082,0.15235 0.7207,0.15235 0.2343,0 0.5429,-0.0273 0.9258,-0.082 z"
           id="path3356"
           style="font-size:24.00000763px;text-align:center;line-height:100%;text-anchor:middle;marker:none;-inkscape-font-specification:Arial" />
      </g>
      <g
         transform="translate(0.95927132,4.1053122)"
         id="g5403">
        <path
           d="m 1471.7531,957.03927 c -45.1436,41.38087 -8.3805,90.28533 27.7463,90.21753 36.1269,-0.068 71.7054,-52.06718 26.4267,-90.24338"
           id="path3025-4-8"
           style="fill:none;stroke:#000000;stroke-width:2;stroke-linecap:round;stroke-linejoin:miter;stroke-miterlimit:4;stroke-opacity:1;stroke-dasharray:none" />
        <path
           d="m 1471.7499,957.13914 c 14.5662,-19.66983 39.5563,-19.6602 54.4143,0.17536"
           id="path3815-0-8"
           style="fill:none;stroke:#000000;stroke-width:2;stroke-linecap:butt;stroke-linejoin:miter;stroke-miterlimit:4;stroke-opacity:1;stroke-dasharray:none" />
        <path
           d="m 199.41534,760.76996 c 0,5.15733 -15.37472,9.33818 -34.3404,9.33818 -18.96569,0 -34.34041,-4.18085 -34.34041,-9.33818 0,-5.15734 15.37472,-9.33818 34.34041,-9.33818 18.96568,0 34.3404,4.18084 34.3404,9.33818 z"
           transform="matrix(0.61089382,0,0,0.72605003,1398.1975,409.38436)"
           id="path3906-9-2"
           style="color:#000000;fill:none;stroke:#000000;stroke-width:3.00305891;stroke-miterlimit:4;marker:none;visibility:visible;display:inline;overflow:visible;enable-background:accumulate" />
        <g
           id="text3777-4"
           style="font-size:24px;font-style:normal;font-variant:normal;font-weight:normal;font-stretch:normal;text-indent:0;text-align:center;text-decoration:none;line-height:100%;letter-spacing:0px;word-spacing:0px;text-transform:none;direction:ltr;block-progression:tb;writing-mode:tb-rl;text-anchor:middle;baseline-shift:baseline;color:#000000;fill:#ffff00;fill-opacity:1;fill-rule:nonzero;stroke:none;stroke-width:2;marker:none;visibility:visible;display:inline;overflow:visible;enable-background:accumulate;font-family:Arial;-inkscape-font-specification:Arial">
          <path
             d="m 1489.8531,999.66461 2.1797,0.26953 c -0.3437,1.27346 -0.9804,2.26176 -1.9101,2.96486 -0.9297,0.7031 -2.1172,1.0547 -3.5625,1.0547 -1.8203,0 -3.2637,-0.5606 -4.3301,-1.6817 -1.0664,-1.1211 -1.5996,-2.69332 -1.5996,-4.71676 0,-2.09374 0.5391,-3.71874 1.6172,-4.875 1.0781,-1.15624 2.4765,-1.73437 4.1953,-1.73438 1.664,10e-6 3.0234,0.56642 4.0781,1.69922 1.0547,1.13282 1.582,2.72657 1.582,4.78125 0,0.12501 0,0.31251 -0.012,0.5625 l -9.2812,0 c 0.078,1.36719 0.4648,2.41407 1.1601,3.14067 0.6953,0.7265 1.5625,1.0898 2.6016,1.0898 0.7734,0 1.4336,-0.2031 1.9805,-0.6094 0.5468,-0.4062 0.9804,-1.0547 1.3007,-1.94529 z m -6.9257,-3.41015 6.9492,0 c -0.094,-1.04687 -0.3594,-1.83203 -0.7969,-2.35547 -0.6719,-0.81249 -1.543,-1.21874 -2.6133,-1.21875 -0.9687,10e-6 -1.7832,0.32423 -2.4433,0.97265 -0.6602,0.64845 -1.0254,1.51564 -1.0957,2.60157 z"
             id="path3360"
             style="fill:#000000;marker:none;-inkscape-font-specification:Arial" />
          <path
             d="m 1494.5992,1008.4654 -0.2343,-1.9805 c 0.4609,0.125 0.8632,0.1875 1.207,0.1875 0.4687,0 0.8437,-0.078 1.125,-0.2344 0.2812,-0.1562 0.5117,-0.375 0.6914,-0.6562 0.1328,-0.2109 0.3477,-0.7344 0.6445,-1.5703 0.039,-0.1172 0.1016,-0.2891 0.1875,-0.5156 l -4.7226,-12.46879 2.2734,0 2.5899,7.20703 c 0.3359,0.91407 0.6367,1.87496 0.9023,2.88286 0.2422,-0.9688 0.5312,-1.9141 0.8672,-2.83598 l 2.6601,-7.25391 2.1094,0 -4.7344,12.65629 c -0.5078,1.3671 -0.9023,2.3086 -1.1835,2.8242 -0.375,0.6953 -0.8047,1.2051 -1.2891,1.5293 -0.4844,0.3242 -1.0625,0.4863 -1.7344,0.4863 -0.4062,0 -0.8594,-0.086 -1.3594,-0.2578 z"
             id="path3362"
             style="fill:#000000;marker:none;-inkscape-font-specification:Arial" />
          <path
             d="m 1515.2125,999.66461 2.1797,0.26953 c -0.3438,1.27346 -0.9805,2.26176 -1.9101,2.96486 -0.9297,0.7031 -2.1172,1.0547 -3.5625,1.0547 -1.8204,0 -3.2637,-0.5606 -4.3301,-1.6817 -1.0664,-1.1211 -1.5996,-2.69332 -1.5996,-4.71676 0,-2.09374 0.539,-3.71874 1.6172,-4.875 1.0781,-1.15624 2.4765,-1.73437 4.1953,-1.73438 1.664,10e-6 3.0234,0.56642 4.0781,1.69922 1.0547,1.13282 1.582,2.72657 1.582,4.78125 0,0.12501 0,0.31251 -0.012,0.5625 l -9.2812,0 c 0.078,1.36719 0.4648,2.41407 1.1601,3.14067 0.6953,0.7265 1.5625,1.0898 2.6016,1.0898 0.7734,0 1.4336,-0.2031 1.9804,-0.6094 0.5469,-0.4062 0.9805,-1.0547 1.3008,-1.94529 z m -6.9258,-3.41015 6.9493,0 c -0.094,-1.04687 -0.3594,-1.83203 -0.7969,-2.35547 -0.6719,-0.81249 -1.543,-1.21874 -2.6133,-1.21875 -0.9688,10e-6 -1.7832,0.32423 -2.4434,0.97265 -0.6601,0.64845 -1.0253,1.51564 -1.0957,2.60157 z"
             id="path3364"
             style="fill:#000000;marker:none;-inkscape-font-specification:Arial" />
        </g>
      </g>
    </g>
  </g>
</svg>
